<?xml version="1.0" encoding="utf-8"?>
<!-- Generator: Adobe Illustrator 16.0.0, SVG Export Plug-In . SVG Version: 6.00 Build 0)  -->
<!DOCTYPE svg PUBLIC "-//W3C//DTD SVG 1.1//EN" "http://www.w3.org/Graphics/SVG/1.1/DTD/svg11.dtd">
<svg version="1.1" id="Layer_1" xmlns="http://www.w3.org/2000/svg" xmlns:xlink="http://www.w3.org/1999/xlink" x="0px" y="0px"
	 width="800.329px" height="256.093px" viewBox="0 0 800.329 256.093" enable-background="new 0 0 800.329 256.093"
	 xml:space="preserve">
<g>
	
		<polyline fill="none" stroke="#999999" stroke-width="2" stroke-linecap="round" stroke-linejoin="round" stroke-miterlimit="10" points="
		249.851,175.157 235.806,164.155 247.626,160.796 255.977,167.337 	"/>
	
		<polyline fill="none" stroke="#999999" stroke-width="2" stroke-linecap="round" stroke-linejoin="round" stroke-miterlimit="10" points="
		248.029,173.73 262.074,184.732 262.506,172.452 254.155,165.91 	"/>
	
		<polyline fill="none" stroke="#999999" stroke-width="2" stroke-linecap="round" stroke-linejoin="round" stroke-miterlimit="10" points="
		273.899,140.705 287.944,151.707 276.125,155.066 267.773,148.525 	"/>
	
		<polyline fill="none" stroke="#999999" stroke-width="2" stroke-linecap="round" stroke-linejoin="round" stroke-miterlimit="10" points="
		275.721,142.132 261.676,131.13 261.244,143.41 269.595,149.952 	"/>
	
		<line fill="none" stroke="#999999" stroke-width="2" stroke-linecap="round" stroke-linejoin="round" stroke-miterlimit="10" x1="247.626" y1="160.796" x2="261.244" y2="143.41"/>
	
		<line fill="none" stroke="#999999" stroke-width="2" stroke-linecap="round" stroke-linejoin="round" stroke-miterlimit="10" x1="262.506" y1="172.452" x2="276.125" y2="155.066"/>
	
		<line fill="none" stroke="#999999" stroke-width="2" stroke-linecap="round" stroke-linejoin="round" stroke-miterlimit="10" x1="258.688" y1="146.675" x2="264.458" y2="145.974"/>
	
		<line fill="none" stroke="#999999" stroke-width="2" stroke-linecap="round" stroke-linejoin="round" stroke-miterlimit="10" x1="256.309" y1="149.711" x2="267.182" y2="148.391"/>
	
		<line fill="none" stroke="#999999" stroke-width="2" stroke-linecap="round" stroke-linejoin="round" stroke-miterlimit="10" x1="253.93" y1="152.748" x2="270.625" y2="150.72"/>
	
		<line fill="none" stroke="#999999" stroke-width="2" stroke-linecap="round" stroke-linejoin="round" stroke-miterlimit="10" x1="251.55" y1="155.785" x2="273.099" y2="153.167"/>
	
		<line fill="none" stroke="#999999" stroke-width="2" stroke-linecap="round" stroke-linejoin="round" stroke-miterlimit="10" x1="249.172" y1="158.822" x2="275.234" y2="155.655"/>
	
		<line fill="none" stroke="#999999" stroke-width="2" stroke-linecap="round" stroke-linejoin="round" stroke-miterlimit="10" x1="248.688" y1="161.628" x2="272.924" y2="158.684"/>
	
		<line fill="none" stroke="#999999" stroke-width="2" stroke-linecap="round" stroke-linejoin="round" stroke-miterlimit="10" x1="258.25" y1="161.024" x2="259.336" y2="169.969"/>
	
		<line fill="none" stroke="#999999" stroke-width="2" stroke-linecap="round" stroke-linejoin="round" stroke-miterlimit="10" x1="255.475" y1="160.804" x2="256.265" y2="167.303"/>
	
		<line fill="none" stroke="#999999" stroke-width="2" stroke-linecap="round" stroke-linejoin="round" stroke-miterlimit="10" x1="252.835" y1="161.691" x2="253.263" y2="165.211"/>
	
		<line fill="none" stroke="#999999" stroke-width="2" stroke-linecap="round" stroke-linejoin="round" stroke-miterlimit="10" x1="260.994" y1="160.992" x2="262.303" y2="171.773"/>
	
		<line fill="none" stroke="#999999" stroke-width="2" stroke-linecap="round" stroke-linejoin="round" stroke-miterlimit="10" x1="263.599" y1="159.817" x2="264.733" y2="169.155"/>
	
		<line fill="none" stroke="#999999" stroke-width="2" stroke-linecap="round" stroke-linejoin="round" stroke-miterlimit="10" x1="266.306" y1="159.488" x2="267.113" y2="166.131"/>
	
		<line fill="none" stroke="#999999" stroke-width="2" stroke-linecap="round" stroke-linejoin="round" stroke-miterlimit="10" x1="269.085" y1="159.745" x2="269.482" y2="163.014"/>
</g>
<g>
	<path fill="none" stroke="#999999" stroke-width="2" stroke-linecap="round" stroke-linejoin="round" stroke-miterlimit="10" d="
		M349.165,194.457l10.514,9.725l-1.123,2.705c0,0-3.04-1.826-5.103,0.404c-2.062,2.23-6.679,7.221-11.199,12.106
		c-6.483,7.009-11.554,8.23-18.138,2.14"/>
	<path fill="none" stroke="#999999" stroke-width="2" stroke-linecap="round" stroke-linejoin="round" stroke-miterlimit="10" d="
		M349.165,194.457l-10.514-9.725l-2.609,1.33c0,0,2.057,2.888-0.006,5.119c-2.062,2.229-6.679,7.22-11.198,12.105
		c-6.483,7.01-7.306,12.16-0.722,18.25"/>
	
		<line fill="none" stroke="#999999" stroke-width="2" stroke-linecap="round" stroke-linejoin="round" stroke-miterlimit="10" x1="348.72" y1="211.902" x2="348.391" y2="203.496"/>
	
		<line fill="none" stroke="#999999" stroke-width="2" stroke-linecap="round" stroke-linejoin="round" stroke-miterlimit="10" x1="345.78" y1="215.268" x2="345.205" y2="200.55"/>
	
		<line fill="none" stroke="#999999" stroke-width="2" stroke-linecap="round" stroke-linejoin="round" stroke-miterlimit="10" x1="351.686" y1="209.202" x2="351.577" y2="206.442"/>
	
		<line fill="none" stroke="#999999" stroke-width="2" stroke-linecap="round" stroke-linejoin="round" stroke-miterlimit="10" x1="342.814" y1="217.993" x2="342.02" y2="197.603"/>
	
		<line fill="none" stroke="#999999" stroke-width="2" stroke-linecap="round" stroke-linejoin="round" stroke-miterlimit="10" x1="339.788" y1="219.135" x2="338.833" y2="194.655"/>
	
		<line fill="none" stroke="#999999" stroke-width="2" stroke-linecap="round" stroke-linejoin="round" stroke-miterlimit="10" x1="336.602" y1="216.188" x2="335.648" y2="191.709"/>
	
		<line fill="none" stroke="#999999" stroke-width="2" stroke-linecap="round" stroke-linejoin="round" stroke-miterlimit="10" x1="333.405" y1="212.953" x2="332.701" y2="194.895"/>
	
		<line fill="none" stroke="#999999" stroke-width="2" stroke-linecap="round" stroke-linejoin="round" stroke-miterlimit="10" x1="330.216" y1="209.924" x2="329.754" y2="198.08"/>
	
		<line fill="none" stroke="#999999" stroke-width="2" stroke-linecap="round" stroke-linejoin="round" stroke-miterlimit="10" x1="327.024" y1="206.83" x2="326.803" y2="201.16"/>
</g>
<g>
	
		<polygon fill="none" stroke="#999999" stroke-width="2" stroke-linecap="round" stroke-linejoin="round" stroke-miterlimit="10" points="
		130.146,96.323 104.154,96.323 95.69,77.101 102.703,72.99 110.077,76.858 116.243,72.99 123.014,76.979 130.146,72.99 	"/>
	
		<line fill="none" stroke="#999999" stroke-width="2" stroke-linecap="round" stroke-linejoin="round" stroke-miterlimit="10" x1="102.703" y1="72.99" x2="109.473" y2="96.323"/>
	
		<line fill="none" stroke="#999999" stroke-width="2" stroke-linecap="round" stroke-linejoin="round" stroke-miterlimit="10" x1="110.077" y1="76.858" x2="114.188" y2="96.323"/>
	
		<line fill="none" stroke="#999999" stroke-width="2" stroke-linecap="round" stroke-linejoin="round" stroke-miterlimit="10" x1="116.243" y1="72.99" x2="119.024" y2="96.323"/>
	
		<line fill="none" stroke="#999999" stroke-width="2" stroke-linecap="round" stroke-linejoin="round" stroke-miterlimit="10" x1="123.014" y1="76.979" x2="124.767" y2="95.84"/>
	
		<polygon fill="none" stroke="#999999" stroke-width="2" stroke-linecap="round" stroke-linejoin="round" stroke-miterlimit="10" points="
		130.146,96.323 156.139,96.323 164.602,77.101 157.59,72.99 150.215,76.858 144.05,72.99 137.279,76.979 130.146,72.99 	"/>
	
		<line fill="none" stroke="#999999" stroke-width="2" stroke-linecap="round" stroke-linejoin="round" stroke-miterlimit="10" x1="157.59" y1="72.99" x2="150.82" y2="96.323"/>
	
		<line fill="none" stroke="#999999" stroke-width="2" stroke-linecap="round" stroke-linejoin="round" stroke-miterlimit="10" x1="150.215" y1="76.858" x2="146.105" y2="96.323"/>
	
		<line fill="none" stroke="#999999" stroke-width="2" stroke-linecap="round" stroke-linejoin="round" stroke-miterlimit="10" x1="144.05" y1="72.99" x2="141.269" y2="96.323"/>
	
		<line fill="none" stroke="#999999" stroke-width="2" stroke-linecap="round" stroke-linejoin="round" stroke-miterlimit="10" x1="137.279" y1="76.979" x2="135.526" y2="95.84"/>
	<path fill="none" stroke="#999999" stroke-width="2" stroke-linecap="round" stroke-linejoin="round" stroke-miterlimit="10" d="
		M161.724,74.928c8.378-16.264-7.156-27.085-32.061-27.085h0c-24.905,0-39.775,11.485-31.397,27.748"/>
	<g>
		
			<circle fill="none" stroke="#999999" stroke-width="2" stroke-linecap="round" stroke-linejoin="round" stroke-miterlimit="10" cx="118.891" cy="21.456" r="2.055"/>
		
			<line fill="none" stroke="#999999" stroke-width="2" stroke-linecap="round" stroke-linejoin="round" stroke-miterlimit="10" x1="119.228" y1="23.482" x2="125.672" y2="61.717"/>
	</g>
	<g>
		
			<circle fill="none" stroke="#999999" stroke-width="2" stroke-linecap="round" stroke-linejoin="round" stroke-miterlimit="10" cx="153.515" cy="35.936" r="2.055"/>
		
			<line fill="none" stroke="#999999" stroke-width="2" stroke-linecap="round" stroke-linejoin="round" stroke-miterlimit="10" x1="152.472" y1="37.708" x2="140.841" y2="57.449"/>
	</g>
	<g>
		
			<circle fill="none" stroke="#999999" stroke-width="2" stroke-linecap="round" stroke-linejoin="round" stroke-miterlimit="10" cx="85.427" cy="44.797" r="2.055"/>
		
			<line fill="none" stroke="#999999" stroke-width="2" stroke-linecap="round" stroke-linejoin="round" stroke-miterlimit="10" x1="86.813" y1="46.314" x2="98.395" y2="58.989"/>
	</g>
	<g>
		
			<circle fill="none" stroke="#999999" stroke-width="2" stroke-linecap="round" stroke-linejoin="round" stroke-miterlimit="10" cx="108.299" cy="40.118" r="2.055"/>
		
			<line fill="none" stroke="#999999" stroke-width="2" stroke-linecap="round" stroke-linejoin="round" stroke-miterlimit="10" x1="108.847" y1="42.1" x2="112.918" y2="56.307"/>
	</g>
	<g>
		
			<circle fill="none" stroke="#999999" stroke-width="2" stroke-linecap="round" stroke-linejoin="round" stroke-miterlimit="10" cx="176.287" cy="51.505" r="2.055"/>
		
			<line fill="none" stroke="#999999" stroke-width="2" stroke-linecap="round" stroke-linejoin="round" stroke-miterlimit="10" x1="174.421" y1="52.367" x2="155.571" y2="61.075"/>
	</g>
	<g>
		
			<circle fill="none" stroke="#999999" stroke-width="2" stroke-linecap="round" stroke-linejoin="round" stroke-miterlimit="10" cx="173.697" cy="64.843" r="2.055"/>
		
			<line fill="none" stroke="#999999" stroke-width="2" stroke-linecap="round" stroke-linejoin="round" stroke-miterlimit="10" x1="171.666" y1="65.157" x2="164.011" y2="66.344"/>
	</g>
	<g>
		
			<circle fill="none" stroke="#999999" stroke-width="2" stroke-linecap="round" stroke-linejoin="round" stroke-miterlimit="10" cx="135.526" cy="28.807" r="2.055"/>
		
			<line fill="none" stroke="#999999" stroke-width="2" stroke-linecap="round" stroke-linejoin="round" stroke-miterlimit="10" x1="135.445" y1="30.861" x2="134.78" y2="47.843"/>
	</g>
</g>
<path fill="none" stroke="#999999" stroke-width="2" stroke-linecap="round" stroke-linejoin="round" stroke-miterlimit="10" d="
	M351.629,147.306c0,4.229-6.455,4.304-6.455-0.001c0-3.934,3.487-5.714,7.642-5.714c4.082,0,8.757,3.265,8.757,11.131
	c0,6.797-5.195,9.942-10.685,9.942c-21,0-25.007-38.732-44.968-38.732c-6.53,0-11.279,5.342-11.279,10.685s4.304,8.568,7.021,8.568
	c3.516,0,7.132-2.854,7.132-6.544c0-3.637-1.91-6.848-6.213-4.399"/>
<path fill="none" stroke="#999999" stroke-width="2" stroke-linecap="round" stroke-linejoin="round" stroke-miterlimit="10" d="
	M57.988,24.374c0,4.229-6.455,4.304-6.455-0.001c0-3.934,3.487-5.714,7.642-5.714c4.082,0,8.757,3.265,8.757,11.131
	c0,6.797-5.195,9.942-10.685,9.942C36.247,39.732,32.24,1,12.279,1C5.749,1,1,6.342,1,11.685s4.304,8.568,7.021,8.568
	c3.516,0,7.132-2.854,7.132-6.544c0-3.637-1.91-6.848-6.213-4.399"/>
<path fill="none" stroke="#999999" stroke-width="2" stroke-linecap="round" stroke-linejoin="round" stroke-miterlimit="10" d="
	M157.948,142.277c3.386-7.325,14.624-2.287,11.177,5.167c-3.149,6.813-10.61,7.104-17.807,3.778
	c-7.071-3.268-12.552-12.664-6.256-26.287c5.443-11.771,16.957-13.059,26.466-8.664c36.367,16.812,12.298,87.098,46.866,103.076
	c11.311,5.229,23.809-0.223,28.087-9.475c4.276-9.252-0.594-18.284-5.3-20.458c-6.09-2.815-14.637-0.767-17.591,5.623
	c-2.91,6.298-2.175,13.387,7.238,12.591"/>
<g>
	<path fill="none" stroke="#999999" stroke-width="2" stroke-linecap="round" stroke-linejoin="round" stroke-miterlimit="10" d="
		M264.039,71.662c-1.205-1.204-6.744-0.963-6.744,5.539c0,4.816,3.854,8.67,11.319,8.67c10.837,0,14.183-7.121,14.183-17.356
		s-10.33-17.805-20.204-17.805s-20.952,7.225-20.952,27.454c0,24.4,22.156,38.292,44.312,38.292
		c22.397,0,30.345-25.778,52.83-25.778c19.66,0,29.052,21.443,17.011,33.485c-14.788,14.787-32.512-3.854-26.009-14.45"/>
	<path fill="none" stroke="#999999" stroke-width="2" stroke-linecap="round" stroke-linejoin="round" stroke-miterlimit="10" d="
		M203.35,24.7c-14.209,34.68,22.397,101.449,59.244,86.277"/>
	<path fill="none" stroke="#999999" stroke-width="2" stroke-linecap="round" stroke-linejoin="round" stroke-miterlimit="10" d="
		M194.439,81.295c7.707,22.639,31.308,44.854,68.154,29.683"/>
	<path fill="none" stroke="#999999" stroke-width="2" stroke-linecap="round" stroke-linejoin="round" stroke-miterlimit="10" d="
		M213.705,129.648c18.544,0.699,33.253-4.766,48.888-18.671"/>
	
		<line fill="none" stroke="#999999" stroke-width="2" stroke-linecap="round" stroke-linejoin="round" stroke-miterlimit="10" x1="329.785" y1="109.713" x2="349.454" y2="128.534"/>
	
		<circle fill="none" stroke="#999999" stroke-width="2" stroke-linecap="round" stroke-linejoin="round" stroke-miterlimit="10" cx="205.758" cy="20.365" r="4.335"/>
	
		<circle fill="none" stroke="#999999" stroke-width="2" stroke-linecap="round" stroke-linejoin="round" stroke-miterlimit="10" cx="268.373" cy="73.277" r="4.335"/>
	
		<circle fill="none" stroke="#999999" stroke-width="2" stroke-linecap="round" stroke-linejoin="round" stroke-miterlimit="10" cx="193.476" cy="76.301" r="4.335"/>
	
		<circle fill="none" stroke="#999999" stroke-width="2" stroke-linecap="round" stroke-linejoin="round" stroke-miterlimit="10" cx="209.37" cy="129.707" r="4.335"/>
</g>
<path fill="none" stroke="#999999" stroke-width="2" stroke-linecap="round" stroke-linejoin="round" stroke-miterlimit="10" d="
	M388.66,192.822c0,0,0.163-4.229,4.541-4.229c4.379,0,16.705,18.798,23.03,18.328c6.324-0.47,4.703-13.159-0.974-13.159
	c-5.676,0-18.813,22.559-25.787,22.559s-5.676-13.864,0.811-13.864s17.84,19.974,25.138,19.974s6.649-12.219-0.811-12.219
	s-16.218,23.264-24.165,23.264s-6.812-10.81-0.162-10.81s18.002,17.624,25.138,17.624s4.541-11.75-0.648-11.75
	s-17.678,22.324-23.03,22.324s-6.812-12.689,0.811-12.689s14.921,16.919,20.759,16.919c5.839,0,5.19-4.7,5.19-4.7"/>
<g>
	<path fill="none" stroke="#999999" stroke-width="2" stroke-linecap="round" stroke-linejoin="round" stroke-miterlimit="10" d="
		M93.71,139.444c-0.473-1.636-5.44-4.1-8.58,1.594c-2.326,4.218-0.813,9.453,5.725,13.059c9.489,5.233,15.858,0.614,20.801-8.349
		s-0.446-20.579-9.093-25.348c-8.646-4.77-21.836-3.793-31.606,13.921c-11.784,21.366,0.908,44.23,20.31,54.931
		c19.612,10.817,39.021-7.918,58.709,2.941c17.215,9.494,15.084,32.808-1.275,37.537c-20.091,5.807-26.608-19.076-15.797-25.214"/>
	<path fill="none" stroke="#999999" stroke-width="2" stroke-linecap="round" stroke-linejoin="round" stroke-miterlimit="10" d="
		M63.248,69.013c-29.19,23.506-29.383,99.65,10.209,104.161"/>
	<path fill="none" stroke="#999999" stroke-width="2" stroke-linecap="round" stroke-linejoin="round" stroke-miterlimit="10" d="
		M28.113,114.268c-4.185,23.545,5.752,54.396,45.344,58.906"/>
	<path fill="none" stroke="#999999" stroke-width="2" stroke-linecap="round" stroke-linejoin="round" stroke-miterlimit="10" d="
		M21.631,165.912c15.9,9.568,31.419,11.887,51.826,7.262"/>
	
		<line fill="none" stroke="#999999" stroke-width="2" stroke-linecap="round" stroke-linejoin="round" stroke-miterlimit="10" x1="132.904" y1="204.517" x2="141.038" y2="230.496"/>
	
		<circle fill="none" stroke="#999999" stroke-width="2" stroke-linecap="round" stroke-linejoin="round" stroke-miterlimit="10" cx="67.45" cy="66.38" r="4.335"/>
	
		<circle fill="none" stroke="#999999" stroke-width="2" stroke-linecap="round" stroke-linejoin="round" stroke-miterlimit="10" cx="96.726" cy="142.953" r="4.334"/>
	
		<circle fill="none" stroke="#999999" stroke-width="2" stroke-linecap="round" stroke-linejoin="round" stroke-miterlimit="10" cx="29.682" cy="109.428" r="4.335"/>
	
		<circle fill="none" stroke="#999999" stroke-width="2" stroke-linecap="round" stroke-linejoin="round" stroke-miterlimit="10" cx="17.807" cy="163.87" r="4.335"/>
</g>
<polygon fill="none" stroke="#999999" stroke-width="2" stroke-linecap="round" stroke-linejoin="round" stroke-miterlimit="10" points="
	71.432,209.427 74.946,216.547 82.803,217.688 77.118,223.229 78.459,231.055 71.432,227.36 64.405,231.055 65.747,223.229 
	60.062,217.688 67.918,216.547 "/>
<polygon fill="none" stroke="#999999" stroke-width="2" stroke-linecap="round" stroke-linejoin="round" stroke-miterlimit="10" points="
	294.641,229.251 298.734,237.546 307.888,238.876 301.265,245.332 302.828,254.448 294.641,250.144 286.454,254.448 
	288.018,245.332 281.395,238.876 290.548,237.546 "/>
<polygon fill="none" stroke="#8CBEB2" stroke-width="2" stroke-linecap="round" stroke-linejoin="round" stroke-miterlimit="10" points="
	228.874,43.18 223.977,36.708 219.079,30.236 227.133,29.23 235.186,28.225 232.03,35.702 "/>
<polygon fill="none" stroke="#999999" stroke-width="2" stroke-linecap="round" stroke-linejoin="round" stroke-miterlimit="10" points="
	13.607,56.307 20.12,53.689 26.633,51.071 25.644,58.021 24.654,64.97 19.13,60.638 "/>
<polygon fill="none" stroke="#999999" stroke-width="2" stroke-linecap="round" stroke-linejoin="round" stroke-miterlimit="10" points="
	181.796,229.251 180.991,220.706 180.185,212.161 187.988,215.735 195.792,219.311 188.794,224.28 "/>
<circle fill="none" stroke="#999999" stroke-width="2" stroke-linecap="round" stroke-linejoin="round" stroke-miterlimit="10" cx="307.523" cy="172.452" r="6.321"/>
<circle fill="none" stroke="#999999" stroke-width="2" stroke-linecap="round" stroke-linejoin="round" stroke-miterlimit="10" cx="368.599" cy="229.251" r="7.408"/>
<circle fill="none" stroke="#999999" stroke-width="2" stroke-linecap="round" stroke-linejoin="round" stroke-miterlimit="10" cx="134.736" cy="114.268" r="6.603"/>
<circle fill="none" stroke="#F06060" stroke-width="2" stroke-linecap="round" stroke-linejoin="round" stroke-miterlimit="10" cx="130.506" cy="163.181" r="7.396"/>
<g>
	
		<polyline fill="none" stroke="#999999" stroke-width="2" stroke-linecap="round" stroke-linejoin="round" stroke-miterlimit="10" points="
		550.478,175.157 564.522,164.155 552.703,160.796 544.353,167.337 	"/>
	
		<polyline fill="none" stroke="#999999" stroke-width="2" stroke-linecap="round" stroke-linejoin="round" stroke-miterlimit="10" points="
		552.3,173.73 538.255,184.732 537.823,172.452 546.175,165.91 	"/>
	
		<polyline fill="none" stroke="#999999" stroke-width="2" stroke-linecap="round" stroke-linejoin="round" stroke-miterlimit="10" points="
		526.431,140.705 512.385,151.707 524.204,155.066 532.556,148.525 	"/>
	
		<polyline fill="none" stroke="#999999" stroke-width="2" stroke-linecap="round" stroke-linejoin="round" stroke-miterlimit="10" points="
		524.608,142.132 538.653,131.13 539.085,143.41 530.733,149.952 	"/>
	
		<line fill="none" stroke="#999999" stroke-width="2" stroke-linecap="round" stroke-linejoin="round" stroke-miterlimit="10" x1="552.703" y1="160.796" x2="539.085" y2="143.41"/>
	
		<line fill="none" stroke="#999999" stroke-width="2" stroke-linecap="round" stroke-linejoin="round" stroke-miterlimit="10" x1="537.823" y1="172.452" x2="524.204" y2="155.066"/>
	
		<line fill="none" stroke="#999999" stroke-width="2" stroke-linecap="round" stroke-linejoin="round" stroke-miterlimit="10" x1="541.642" y1="146.675" x2="535.871" y2="145.974"/>
	
		<line fill="none" stroke="#999999" stroke-width="2" stroke-linecap="round" stroke-linejoin="round" stroke-miterlimit="10" x1="544.021" y1="149.711" x2="533.147" y2="148.391"/>
	
		<line fill="none" stroke="#999999" stroke-width="2" stroke-linecap="round" stroke-linejoin="round" stroke-miterlimit="10" x1="546.399" y1="152.748" x2="529.704" y2="150.72"/>
	
		<line fill="none" stroke="#999999" stroke-width="2" stroke-linecap="round" stroke-linejoin="round" stroke-miterlimit="10" x1="548.778" y1="155.785" x2="527.229" y2="153.167"/>
	
		<line fill="none" stroke="#999999" stroke-width="2" stroke-linecap="round" stroke-linejoin="round" stroke-miterlimit="10" x1="551.157" y1="158.822" x2="525.095" y2="155.655"/>
	
		<line fill="none" stroke="#999999" stroke-width="2" stroke-linecap="round" stroke-linejoin="round" stroke-miterlimit="10" x1="551.641" y1="161.628" x2="527.405" y2="158.684"/>
	
		<line fill="none" stroke="#999999" stroke-width="2" stroke-linecap="round" stroke-linejoin="round" stroke-miterlimit="10" x1="542.079" y1="161.024" x2="540.993" y2="169.969"/>
	
		<line fill="none" stroke="#999999" stroke-width="2" stroke-linecap="round" stroke-linejoin="round" stroke-miterlimit="10" x1="544.854" y1="160.804" x2="544.064" y2="167.303"/>
	
		<line fill="none" stroke="#999999" stroke-width="2" stroke-linecap="round" stroke-linejoin="round" stroke-miterlimit="10" x1="547.494" y1="161.691" x2="547.066" y2="165.211"/>
	
		<line fill="none" stroke="#999999" stroke-width="2" stroke-linecap="round" stroke-linejoin="round" stroke-miterlimit="10" x1="539.335" y1="160.992" x2="538.026" y2="171.773"/>
	
		<line fill="none" stroke="#999999" stroke-width="2" stroke-linecap="round" stroke-linejoin="round" stroke-miterlimit="10" x1="536.73" y1="159.817" x2="535.597" y2="169.155"/>
	
		<line fill="none" stroke="#999999" stroke-width="2" stroke-linecap="round" stroke-linejoin="round" stroke-miterlimit="10" x1="534.022" y1="159.488" x2="533.216" y2="166.131"/>
	
		<line fill="none" stroke="#999999" stroke-width="2" stroke-linecap="round" stroke-linejoin="round" stroke-miterlimit="10" x1="531.243" y1="159.745" x2="530.847" y2="163.014"/>
</g>
<g>
	<path fill="none" stroke="#999999" stroke-width="2" stroke-linecap="round" stroke-linejoin="round" stroke-miterlimit="10" d="
		M451.164,194.457l-10.514,9.725l1.122,2.705c0,0,3.041-1.826,5.104,0.404s6.68,7.221,11.199,12.106
		c6.482,7.009,11.553,8.23,18.137,2.14"/>
	<path fill="none" stroke="#999999" stroke-width="2" stroke-linecap="round" stroke-linejoin="round" stroke-miterlimit="10" d="
		M451.164,194.457l10.514-9.725l2.608,1.33c0,0-2.057,2.888,0.007,5.119c2.062,2.229,6.679,7.22,11.198,12.105
		c6.482,7.01,7.306,12.16,0.721,18.25"/>
	
		<line fill="none" stroke="#999999" stroke-width="2" stroke-linecap="round" stroke-linejoin="round" stroke-miterlimit="10" x1="451.608" y1="211.902" x2="451.938" y2="203.496"/>
	
		<line fill="none" stroke="#999999" stroke-width="2" stroke-linecap="round" stroke-linejoin="round" stroke-miterlimit="10" x1="454.55" y1="215.268" x2="455.124" y2="200.55"/>
	
		<line fill="none" stroke="#999999" stroke-width="2" stroke-linecap="round" stroke-linejoin="round" stroke-miterlimit="10" x1="448.644" y1="209.202" x2="448.753" y2="206.442"/>
	
		<line fill="none" stroke="#999999" stroke-width="2" stroke-linecap="round" stroke-linejoin="round" stroke-miterlimit="10" x1="457.515" y1="217.993" x2="458.31" y2="197.603"/>
	
		<line fill="none" stroke="#999999" stroke-width="2" stroke-linecap="round" stroke-linejoin="round" stroke-miterlimit="10" x1="460.541" y1="219.135" x2="461.496" y2="194.655"/>
	
		<line fill="none" stroke="#999999" stroke-width="2" stroke-linecap="round" stroke-linejoin="round" stroke-miterlimit="10" x1="463.728" y1="216.188" x2="464.681" y2="191.709"/>
	
		<line fill="none" stroke="#999999" stroke-width="2" stroke-linecap="round" stroke-linejoin="round" stroke-miterlimit="10" x1="466.925" y1="212.953" x2="467.628" y2="194.895"/>
	
		<line fill="none" stroke="#999999" stroke-width="2" stroke-linecap="round" stroke-linejoin="round" stroke-miterlimit="10" x1="470.112" y1="209.924" x2="470.575" y2="198.08"/>
	
		<line fill="none" stroke="#999999" stroke-width="2" stroke-linecap="round" stroke-linejoin="round" stroke-miterlimit="10" x1="473.305" y1="206.83" x2="473.526" y2="201.16"/>
</g>
<g>
	
		<polygon fill="none" stroke="#999999" stroke-width="2" stroke-linecap="round" stroke-linejoin="round" stroke-miterlimit="10" points="
		670.183,96.323 696.175,96.323 704.639,77.101 697.626,72.99 690.252,76.858 684.086,72.99 677.315,76.979 670.183,72.99 	"/>
	
		<line fill="none" stroke="#999999" stroke-width="2" stroke-linecap="round" stroke-linejoin="round" stroke-miterlimit="10" x1="697.626" y1="72.99" x2="690.856" y2="96.323"/>
	
		<line fill="none" stroke="#999999" stroke-width="2" stroke-linecap="round" stroke-linejoin="round" stroke-miterlimit="10" x1="690.252" y1="76.858" x2="686.142" y2="96.323"/>
	
		<line fill="none" stroke="#999999" stroke-width="2" stroke-linecap="round" stroke-linejoin="round" stroke-miterlimit="10" x1="684.086" y1="72.99" x2="681.306" y2="96.323"/>
	
		<line fill="none" stroke="#999999" stroke-width="2" stroke-linecap="round" stroke-linejoin="round" stroke-miterlimit="10" x1="677.315" y1="76.979" x2="675.562" y2="95.84"/>
	
		<polygon fill="none" stroke="#999999" stroke-width="2" stroke-linecap="round" stroke-linejoin="round" stroke-miterlimit="10" points="
		670.183,96.323 644.19,96.323 635.728,77.101 642.739,72.99 650.114,76.858 656.279,72.99 663.05,76.979 670.183,72.99 	"/>
	
		<line fill="none" stroke="#999999" stroke-width="2" stroke-linecap="round" stroke-linejoin="round" stroke-miterlimit="10" x1="642.739" y1="72.99" x2="649.509" y2="96.323"/>
	
		<line fill="none" stroke="#999999" stroke-width="2" stroke-linecap="round" stroke-linejoin="round" stroke-miterlimit="10" x1="650.114" y1="76.858" x2="654.224" y2="96.323"/>
	
		<line fill="none" stroke="#999999" stroke-width="2" stroke-linecap="round" stroke-linejoin="round" stroke-miterlimit="10" x1="656.279" y1="72.99" x2="659.06" y2="96.323"/>
	
		<line fill="none" stroke="#999999" stroke-width="2" stroke-linecap="round" stroke-linejoin="round" stroke-miterlimit="10" x1="663.05" y1="76.979" x2="664.804" y2="95.84"/>
	<path fill="none" stroke="#999999" stroke-width="2" stroke-linecap="round" stroke-linejoin="round" stroke-miterlimit="10" d="
		M638.604,74.928c-8.377-16.264,7.156-27.085,32.062-27.085h0.001c24.904,0,39.775,11.485,31.396,27.748"/>
	<g>
		
			<circle fill="none" stroke="#999999" stroke-width="2" stroke-linecap="round" stroke-linejoin="round" stroke-miterlimit="10" cx="681.438" cy="21.456" r="2.055"/>
		
			<line fill="none" stroke="#999999" stroke-width="2" stroke-linecap="round" stroke-linejoin="round" stroke-miterlimit="10" x1="681.102" y1="23.482" x2="674.657" y2="61.717"/>
	</g>
	<g>
		
			<circle fill="none" stroke="#999999" stroke-width="2" stroke-linecap="round" stroke-linejoin="round" stroke-miterlimit="10" cx="646.814" cy="35.936" r="2.055"/>
		
			<line fill="none" stroke="#999999" stroke-width="2" stroke-linecap="round" stroke-linejoin="round" stroke-miterlimit="10" x1="647.857" y1="37.708" x2="659.487" y2="57.449"/>
	</g>
	<g>
		
			<circle fill="none" stroke="#999999" stroke-width="2" stroke-linecap="round" stroke-linejoin="round" stroke-miterlimit="10" cx="714.902" cy="44.797" r="2.055"/>
		
			<line fill="none" stroke="#999999" stroke-width="2" stroke-linecap="round" stroke-linejoin="round" stroke-miterlimit="10" x1="713.516" y1="46.314" x2="701.935" y2="58.989"/>
	</g>
	<g>
		
			<circle fill="none" stroke="#999999" stroke-width="2" stroke-linecap="round" stroke-linejoin="round" stroke-miterlimit="10" cx="692.03" cy="40.118" r="2.055"/>
		
			<line fill="none" stroke="#999999" stroke-width="2" stroke-linecap="round" stroke-linejoin="round" stroke-miterlimit="10" x1="691.481" y1="42.1" x2="687.411" y2="56.307"/>
	</g>
	<g>
		
			<circle fill="none" stroke="#999999" stroke-width="2" stroke-linecap="round" stroke-linejoin="round" stroke-miterlimit="10" cx="624.042" cy="51.505" r="2.055"/>
		
			<line fill="none" stroke="#999999" stroke-width="2" stroke-linecap="round" stroke-linejoin="round" stroke-miterlimit="10" x1="625.908" y1="52.367" x2="644.759" y2="61.075"/>
	</g>
	<g>
		
			<circle fill="none" stroke="#999999" stroke-width="2" stroke-linecap="round" stroke-linejoin="round" stroke-miterlimit="10" cx="626.632" cy="64.843" r="2.055"/>
		
			<line fill="none" stroke="#999999" stroke-width="2" stroke-linecap="round" stroke-linejoin="round" stroke-miterlimit="10" x1="628.663" y1="65.157" x2="636.318" y2="66.344"/>
	</g>
	<g>
		
			<circle fill="none" stroke="#999999" stroke-width="2" stroke-linecap="round" stroke-linejoin="round" stroke-miterlimit="10" cx="664.803" cy="28.807" r="2.055"/>
		
			<line fill="none" stroke="#999999" stroke-width="2" stroke-linecap="round" stroke-linejoin="round" stroke-miterlimit="10" x1="664.884" y1="30.861" x2="665.549" y2="47.843"/>
	</g>
</g>
<path fill="none" stroke="#999999" stroke-width="2" stroke-linecap="round" stroke-linejoin="round" stroke-miterlimit="10" d="
	M448.7,147.306c0,4.229,6.455,4.304,6.455-0.001c0-3.934-3.486-5.714-7.643-5.714c-4.081,0-8.756,3.265-8.756,11.131
	c0,6.797,5.194,9.942,10.685,9.942c21,0,25.007-38.732,44.968-38.732c6.53,0,11.279,5.342,11.279,10.685s-4.305,8.568-7.021,8.568
	c-3.516,0-7.132-2.854-7.132-6.544c0-3.637,1.909-6.848,6.213-4.399"/>
<path fill="none" stroke="#999999" stroke-width="2" stroke-linecap="round" stroke-linejoin="round" stroke-miterlimit="10" d="
	M742.341,24.374c0,4.229,6.455,4.304,6.455-0.001c0-3.934-3.486-5.714-7.642-5.714c-4.081,0-8.757,3.265-8.757,11.131
	c0,6.797,5.195,9.942,10.686,9.942c21,0,25.006-38.732,44.967-38.732c6.531,0,11.279,5.342,11.279,10.685s-4.304,8.568-7.021,8.568
	c-3.517,0-7.132-2.854-7.132-6.544c0-3.637,1.909-6.848,6.213-4.399"/>
<path fill="none" stroke="#999999" stroke-width="2" stroke-linecap="round" stroke-linejoin="round" stroke-miterlimit="10" d="
	M642.381,142.277c-3.386-7.325-14.624-2.287-11.177,5.167c3.148,6.813,10.609,7.104,17.807,3.778
	c7.07-3.268,12.552-12.664,6.256-26.287c-5.443-11.771-16.957-13.059-26.466-8.664c-36.367,16.812-12.298,87.098-46.866,103.076
	c-11.311,5.229-23.809-0.223-28.088-9.475c-4.275-9.252,0.595-18.284,5.301-20.458c6.09-2.815,14.637-0.767,17.591,5.623
	c2.91,6.298,2.175,13.387-7.237,12.591"/>
<g>
	<path fill="none" stroke="#999999" stroke-width="2" stroke-linecap="round" stroke-linejoin="round" stroke-miterlimit="10" d="
		M536.29,71.662c1.205-1.204,6.744-0.963,6.744,5.539c0,4.816-3.854,8.67-11.319,8.67c-10.837,0-14.183-7.121-14.183-17.356
		s10.33-17.805,20.203-17.805c9.875,0,20.953,7.225,20.953,27.454c0,24.4-22.156,38.292-44.312,38.292
		c-22.397,0-30.346-25.778-52.83-25.778c-19.66,0-29.053,21.443-17.011,33.485c14.788,14.787,32.512-3.854,26.009-14.45"/>
	<path fill="none" stroke="#999999" stroke-width="2" stroke-linecap="round" stroke-linejoin="round" stroke-miterlimit="10" d="
		M596.979,24.7c14.209,34.68-22.396,101.449-59.244,86.277"/>
	<path fill="none" stroke="#999999" stroke-width="2" stroke-linecap="round" stroke-linejoin="round" stroke-miterlimit="10" d="
		M605.89,81.295c-7.706,22.639-31.307,44.854-68.154,29.683"/>
	<path fill="none" stroke="#999999" stroke-width="2" stroke-linecap="round" stroke-linejoin="round" stroke-miterlimit="10" d="
		M586.624,129.648c-18.544,0.699-33.253-4.766-48.889-18.671"/>
	
		<line fill="none" stroke="#999999" stroke-width="2" stroke-linecap="round" stroke-linejoin="round" stroke-miterlimit="10" x1="470.544" y1="109.713" x2="450.875" y2="128.534"/>
	
		<circle fill="none" stroke="#999999" stroke-width="2" stroke-linecap="round" stroke-linejoin="round" stroke-miterlimit="10" cx="594.571" cy="20.365" r="4.335"/>
	
		<circle fill="none" stroke="#999999" stroke-width="2" stroke-linecap="round" stroke-linejoin="round" stroke-miterlimit="10" cx="531.956" cy="73.277" r="4.334"/>
	
		<circle fill="none" stroke="#999999" stroke-width="2" stroke-linecap="round" stroke-linejoin="round" stroke-miterlimit="10" cx="606.854" cy="76.301" r="4.335"/>
	
		<circle fill="none" stroke="#999999" stroke-width="2" stroke-linecap="round" stroke-linejoin="round" stroke-miterlimit="10" cx="590.959" cy="129.707" r="4.335"/>
</g>
<g>
	<path fill="none" stroke="#999999" stroke-width="2" stroke-linecap="round" stroke-linejoin="round" stroke-miterlimit="10" d="
		M706.619,139.444c0.474-1.636,5.44-4.1,8.579,1.594c2.326,4.218,0.813,9.453-5.725,13.059c-9.488,5.233-15.857,0.614-20.801-8.349
		s0.446-20.579,9.093-25.348c8.646-4.77,21.836-3.793,31.606,13.921c11.783,21.366-0.908,44.23-20.311,54.931
		c-19.611,10.817-39.021-7.918-58.709,2.941c-17.215,9.494-15.084,32.808,1.275,37.537c20.091,5.807,26.608-19.076,15.797-25.214"/>
	<path fill="none" stroke="#999999" stroke-width="2" stroke-linecap="round" stroke-linejoin="round" stroke-miterlimit="10" d="
		M737.081,69.013c29.189,23.506,29.383,99.65-10.209,104.161"/>
	<path fill="none" stroke="#999999" stroke-width="2" stroke-linecap="round" stroke-linejoin="round" stroke-miterlimit="10" d="
		M772.216,114.268c4.186,23.545-5.752,54.396-45.344,58.906"/>
	<path fill="none" stroke="#999999" stroke-width="2" stroke-linecap="round" stroke-linejoin="round" stroke-miterlimit="10" d="
		M778.698,165.912c-15.9,9.568-31.42,11.887-51.826,7.262"/>
	
		<line fill="none" stroke="#999999" stroke-width="2" stroke-linecap="round" stroke-linejoin="round" stroke-miterlimit="10" x1="667.425" y1="204.517" x2="659.291" y2="230.496"/>
	
		<circle fill="none" stroke="#999999" stroke-width="2" stroke-linecap="round" stroke-linejoin="round" stroke-miterlimit="10" cx="732.879" cy="66.38" r="4.335"/>
	
		<circle fill="none" stroke="#999999" stroke-width="2" stroke-linecap="round" stroke-linejoin="round" stroke-miterlimit="10" cx="703.603" cy="142.953" r="4.334"/>
	
		<circle fill="none" stroke="#999999" stroke-width="2" stroke-linecap="round" stroke-linejoin="round" stroke-miterlimit="10" cx="770.647" cy="109.428" r="4.335"/>
	
		<circle fill="none" stroke="#999999" stroke-width="2" stroke-linecap="round" stroke-linejoin="round" stroke-miterlimit="10" cx="782.521" cy="163.87" r="4.335"/>
</g>
<polygon fill="none" stroke="#999999" stroke-width="2" stroke-linecap="round" stroke-linejoin="round" stroke-miterlimit="10" points="
	728.897,209.427 725.384,216.547 717.526,217.688 723.212,223.229 721.87,231.055 728.897,227.36 735.925,231.055 734.582,223.229 
	740.268,217.688 732.411,216.547 "/>
<polygon fill="none" stroke="#999999" stroke-width="2" stroke-linecap="round" stroke-linejoin="round" stroke-miterlimit="10" points="
	505.688,229.251 501.595,237.546 492.441,238.876 499.064,245.332 497.501,254.448 505.688,250.144 513.875,254.448 
	512.312,245.332 518.935,238.876 509.781,237.546 "/>
<polygon fill="none" stroke="#999999" stroke-width="2" stroke-linecap="round" stroke-linejoin="round" stroke-miterlimit="10" points="
	571.455,43.18 576.353,36.708 581.25,30.236 573.196,29.23 565.144,28.225 568.299,35.702 "/>
<polygon fill="none" stroke="#999999" stroke-width="2" stroke-linecap="round" stroke-linejoin="round" stroke-miterlimit="10" points="
	786.722,56.307 780.209,53.689 773.696,51.071 774.686,58.021 775.675,64.97 781.198,60.638 "/>
<polygon fill="none" stroke="#999999" stroke-width="2" stroke-linecap="round" stroke-linejoin="round" stroke-miterlimit="10" points="
	618.532,229.251 619.339,220.706 620.144,212.161 612.341,215.735 604.538,219.311 611.535,224.28 "/>
<circle fill="none" stroke="#999999" stroke-width="2" stroke-linecap="round" stroke-linejoin="round" stroke-miterlimit="10" cx="492.807" cy="172.452" r="6.321"/>
<circle fill="none" stroke="#999999" stroke-width="2" stroke-linecap="round" stroke-linejoin="round" stroke-miterlimit="10" cx="431.729" cy="229.251" r="7.408"/>
<circle fill="none" stroke="#F3B562" stroke-width="2" stroke-linecap="round" stroke-linejoin="round" stroke-miterlimit="10" cx="665.594" cy="114.268" r="6.603"/>
<circle fill="none" stroke="#999999" stroke-width="2" stroke-linecap="round" stroke-linejoin="round" stroke-miterlimit="10" cx="669.823" cy="163.181" r="7.396"/>
</svg>
