<?xml version="1.0" encoding="utf-8"?>
<!-- Generator: Adobe Illustrator 16.0.0, SVG Export Plug-In . SVG Version: 6.00 Build 0)  -->
<!DOCTYPE svg PUBLIC "-//W3C//DTD SVG 1.1//EN" "http://www.w3.org/Graphics/SVG/1.1/DTD/svg11.dtd">
<svg version="1.1" id="Layer_1" xmlns="http://www.w3.org/2000/svg" xmlns:xlink="http://www.w3.org/1999/xlink" x="0px" y="0px"
	 width="222.596px" height="92.107px" viewBox="0 0 222.596 92.107" enable-background="new 0 0 222.596 92.107"
	 xml:space="preserve">
<g>
	<path fill="none" stroke="#999999" stroke-width="2" stroke-linecap="round" stroke-linejoin="round" stroke-miterlimit="10" d="
		M97.585,47.674c0,0,23.337,0,38.507,0s21.237,20.304,35.707,20.304s18.903-14.236,35.473-14.236c16.569,0,21.47,25.205,0,25.205
		c-11.747,0-11.202-15.637-1.167-15.637c5.99,0,5.368,6.535,0,6.535c-3.656,0-2.801-2.567-2.801-2.567"/>
	<path fill="none" stroke="#999999" stroke-width="2" stroke-linecap="round" stroke-linejoin="round" stroke-miterlimit="10" d="
		M97.585,47.674c0,0,23.337,0,38.507,0S157.33,27.37,171.799,27.37s18.903,14.235,35.473,14.235c16.569,0,21.47-25.204,0-25.204
		c-11.747,0-11.202,15.636-1.167,15.636c5.99,0,5.368-6.534,0-6.534c-3.656,0-2.801,2.567-2.801,2.567"/>
	<path fill="none" stroke="#999999" stroke-width="2" stroke-linecap="round" stroke-linejoin="round" stroke-miterlimit="10" d="
		M73.471,45.808L73.471,45.808c15.597-0.001,17.393-8.387,28.472-8.401c16.355-0.022,14.722,21.819-3.112,21.159
		C89.658,58.226,92.043,47.674,73.471,45.808z"/>
	<path fill="none" stroke="#999999" stroke-width="2" stroke-linecap="round" stroke-linejoin="round" stroke-miterlimit="10" d="
		M127.147,1c8.043,5.837,3.114,17.383,9.989,22.182c6.875,4.8,20.367-5.448,13.362-13.231c-7.005-7.784-14.27-4.799-18.81-6.875
		C127.147,1,127.147,1,127.147,1z"/>
	<path fill="none" stroke="#999999" stroke-width="2" stroke-linecap="round" stroke-linejoin="round" stroke-miterlimit="10" d="
		M129.06,91.107L129.06,91.107c1.996-6.28-3.405-8.712,0.734-16.553c6.111-11.574,19.086-2.751,13.518,7.117
		C139.702,88.068,133.277,86.122,129.06,91.107z"/>
	<path fill="none" stroke="#999999" stroke-width="2" stroke-linecap="round" stroke-linejoin="round" stroke-miterlimit="10" d="
		M139.803,12.707c-7.055-4.552,14.996,9.985,18.439,20.998"/>
	<path fill="none" stroke="#999999" stroke-width="2" stroke-linecap="round" stroke-linejoin="round" stroke-miterlimit="10" d="
		M136.427,75.989c7.833-13.068,10.114-15.669,17.764-18.18"/>
</g>
<path fill="none" stroke="#999999" stroke-width="2" stroke-linecap="round" stroke-linejoin="round" stroke-miterlimit="10" d="
	M60.863,22.463c0,0,4.066,0.227,4.066,6.325c0,6.1-18.072,23.268-17.62,32.078c0.452,8.81,12.65,6.551,12.65-1.355
	S38.273,33.307,38.273,23.593s13.328-7.906,13.328,1.129c0,9.036-19.202,24.85-19.202,35.015c0,10.166,11.747,9.262,11.747-1.129
	c0-10.392-22.364-22.591-22.364-33.659c0-11.069,10.391-9.488,10.391-0.227S15.231,49.797,15.231,59.736s11.295,6.325,11.295-0.903
	S5.066,34.21,5.066,26.755c0-7.454,12.199-9.487,12.199,1.13S1,48.668,1,56.8s4.518,7.229,4.518,7.229"/>
</svg>
