<?xml version="1.0" encoding="utf-8"?>
<!-- Generator: Adobe Illustrator 16.0.0, SVG Export Plug-In . SVG Version: 6.00 Build 0)  -->
<!DOCTYPE svg PUBLIC "-//W3C//DTD SVG 1.1//EN" "http://www.w3.org/Graphics/SVG/1.1/DTD/svg11.dtd">
<svg version="1.1" id="Layer_1" xmlns="http://www.w3.org/2000/svg" xmlns:xlink="http://www.w3.org/1999/xlink" x="0px" y="0px"
	 width="280.947px" height="188.834px" viewBox="0 0 280.947 188.834" enable-background="new 0 0 280.947 188.834"
	 xml:space="preserve">
<g>
	<path fill="none" stroke="#999999" stroke-width="2" stroke-linecap="round" stroke-linejoin="round" stroke-miterlimit="10" d="
		M134.127,141.455c0,0-5.607,8.852-5.607,16.861c0,8.466,4.205,14.059,12.451,14.059c8.796,0,13.826-6.293,13.826-13.329
		c0-8.672-6.527-17.137-6.527-17.137s6.527-0.165,6.527-6.83c0-4.425-3.105-6.115-5.662-6.115c-4.508,0-8.369,2.804-8.369,2.804
		s-3.753-2.681-8.247-2.681c-2.927,0-4.878,2.099-4.878,6.017C127.64,140.791,134.127,141.455,134.127,141.455z"/>
	<path fill="none" stroke="#999999" stroke-width="2" stroke-linecap="round" stroke-linejoin="round" stroke-miterlimit="10" d="
		M141.217,164.211c0,0,0,7.792,0,11.543c0,8.905,3.876,12.08,9.814,12.08c5.441,0,9.977-4.288,9.977-8.452
		c0-3.545-2.104-6.514-6.926-6.514c-3.465,0-5.689,1.896-5.689,5.111c0,2.475,1.525,4.123,3.34,4.123
		c0.967,0,2.418-1.039,2.418-2.522c0-1.56-1.1-3.558-3.037-2.466"/>
	<path fill="none" stroke="#999999" stroke-width="2" stroke-linecap="round" stroke-linejoin="round" stroke-miterlimit="10" d="
		M136.04,129.595c0,0,3.9-4.261,4.891-4.261c0.988,0,3.98,4.372,3.98,4.372"/>
	
		<line fill="none" stroke="#999999" stroke-width="2" stroke-linecap="round" stroke-linejoin="round" stroke-miterlimit="10" x1="127.665" y1="134.367" x2="121.965" y2="134.775"/>
	
		<line fill="none" stroke="#999999" stroke-width="2" stroke-linecap="round" stroke-linejoin="round" stroke-miterlimit="10" x1="128.045" y1="137.363" x2="123.243" y2="139.599"/>
	
		<line fill="none" stroke="#999999" stroke-width="2" stroke-linecap="round" stroke-linejoin="round" stroke-miterlimit="10" x1="130.56" y1="140.226" x2="125.407" y2="143.763"/>
	
		<line fill="none" stroke="#999999" stroke-width="2" stroke-linecap="round" stroke-linejoin="round" stroke-miterlimit="10" x1="154.631" y1="133.416" x2="161.049" y2="133.416"/>
	
		<line fill="none" stroke="#999999" stroke-width="2" stroke-linecap="round" stroke-linejoin="round" stroke-miterlimit="10" x1="154.518" y1="137.277" x2="159.646" y2="138.341"/>
	
		<line fill="none" stroke="#999999" stroke-width="2" stroke-linecap="round" stroke-linejoin="round" stroke-miterlimit="10" x1="153.174" y1="139.734" x2="159.193" y2="144.174"/>
</g>
<polygon fill="none" stroke="#999999" stroke-width="2" stroke-linecap="round" stroke-linejoin="round" stroke-miterlimit="10" points="
	34.95,98.885 23.215,100.55 17.933,111.162 12.724,100.515 1,98.772 9.515,90.527 7.55,78.839 18.023,84.389 28.534,78.909 
	26.491,90.584 "/>
<polygon fill="none" stroke="#999999" stroke-width="2" stroke-linecap="round" stroke-linejoin="round" stroke-miterlimit="10" points="
	279.947,98.885 268.213,100.55 262.93,111.162 257.721,100.515 245.998,98.772 254.512,90.527 252.547,78.839 263.02,84.389 
	273.531,78.909 271.488,90.584 "/>
<g>
	
		<polyline fill="none" stroke="#999999" stroke-width="2" stroke-linecap="round" stroke-linejoin="round" stroke-miterlimit="10" points="
		85.309,114.72 96.939,101.19 84.691,100.2 77.776,108.244 	"/>
	
		<polyline fill="none" stroke="#999999" stroke-width="2" stroke-linecap="round" stroke-linejoin="round" stroke-miterlimit="10" points="
		86.817,112.966 75.187,126.496 72.37,114.535 79.286,106.489 	"/>
	
		<polyline fill="none" stroke="#999999" stroke-width="2" stroke-linecap="round" stroke-linejoin="round" stroke-miterlimit="10" points="
		55.005,85.618 43.375,99.147 55.623,100.138 62.539,92.095 	"/>
	
		<polyline fill="none" stroke="#999999" stroke-width="2" stroke-linecap="round" stroke-linejoin="round" stroke-miterlimit="10" points="
		53.497,87.372 65.126,73.843 67.945,85.804 61.03,93.847 	"/>
	
		<line fill="none" stroke="#999999" stroke-width="2" stroke-linecap="round" stroke-linejoin="round" stroke-miterlimit="10" x1="84.691" y1="100.2" x2="67.945" y2="85.804"/>
	
		<line fill="none" stroke="#999999" stroke-width="2" stroke-linecap="round" stroke-linejoin="round" stroke-miterlimit="10" x1="72.37" y1="114.535" x2="55.623" y2="100.138"/>
	
		<line fill="none" stroke="#999999" stroke-width="2" stroke-linecap="round" stroke-linejoin="round" stroke-miterlimit="10" x1="71.088" y1="88.507" x2="65.292" y2="88.944"/>
	
		<line fill="none" stroke="#999999" stroke-width="2" stroke-linecap="round" stroke-linejoin="round" stroke-miterlimit="10" x1="74.014" y1="91.021" x2="63.092" y2="91.847"/>
	
		<line fill="none" stroke="#999999" stroke-width="2" stroke-linecap="round" stroke-linejoin="round" stroke-miterlimit="10" x1="76.939" y1="93.536" x2="60.169" y2="94.802"/>
	
		<line fill="none" stroke="#999999" stroke-width="2" stroke-linecap="round" stroke-linejoin="round" stroke-miterlimit="10" x1="79.866" y1="96.052" x2="58.22" y2="97.685"/>
	
		<line fill="none" stroke="#999999" stroke-width="2" stroke-linecap="round" stroke-linejoin="round" stroke-miterlimit="10" x1="82.791" y1="98.565" x2="56.611" y2="100.542"/>
	
		<line fill="none" stroke="#999999" stroke-width="2" stroke-linecap="round" stroke-linejoin="round" stroke-miterlimit="10" x1="83.811" y1="101.222" x2="59.467" y2="103.062"/>
	
		<line fill="none" stroke="#999999" stroke-width="2" stroke-linecap="round" stroke-linejoin="round" stroke-miterlimit="10" x1="74.315" y1="102.495" x2="74.995" y2="111.48"/>
	
		<line fill="none" stroke="#999999" stroke-width="2" stroke-linecap="round" stroke-linejoin="round" stroke-miterlimit="10" x1="76.995" y1="101.739" x2="77.488" y2="108.267"/>
	
		<line fill="none" stroke="#999999" stroke-width="2" stroke-linecap="round" stroke-linejoin="round" stroke-miterlimit="10" x1="79.757" y1="102.095" x2="80.023" y2="105.63"/>
	
		<line fill="none" stroke="#999999" stroke-width="2" stroke-linecap="round" stroke-linejoin="round" stroke-miterlimit="10" x1="71.619" y1="102.999" x2="72.436" y2="113.83"/>
	
		<line fill="none" stroke="#999999" stroke-width="2" stroke-linecap="round" stroke-linejoin="round" stroke-miterlimit="10" x1="68.834" y1="102.354" x2="69.543" y2="111.736"/>
	
		<line fill="none" stroke="#999999" stroke-width="2" stroke-linecap="round" stroke-linejoin="round" stroke-miterlimit="10" x1="66.115" y1="102.56" x2="66.619" y2="109.234"/>
	
		<line fill="none" stroke="#999999" stroke-width="2" stroke-linecap="round" stroke-linejoin="round" stroke-miterlimit="10" x1="63.438" y1="103.354" x2="63.686" y2="106.638"/>
</g>
<g>
	<path fill="none" stroke="#999999" stroke-width="2" stroke-linecap="round" stroke-linejoin="round" stroke-miterlimit="10" d="
		M198.922,115.007l12.393,11.249l3.033-1.582c0,0-2.436-3.354-0.049-5.981s7.727-8.512,12.953-14.27
		c7.498-8.261,8.404-14.288,0.645-21.333"/>
	<path fill="none" stroke="#999999" stroke-width="2" stroke-linecap="round" stroke-linejoin="round" stroke-miterlimit="10" d="
		M198.922,115.007l-12.393-11.249l1.283-3.173c0,0,3.572,2.101,5.959-0.528c2.385-2.628,7.725-8.511,12.951-14.269
		c7.5-8.262,13.412-9.744,21.172-2.699"/>
	
		<line fill="none" stroke="#999999" stroke-width="2" stroke-linecap="round" stroke-linejoin="round" stroke-miterlimit="10" x1="219.186" y1="112.712" x2="209.365" y2="113.186"/>
	
		<line fill="none" stroke="#999999" stroke-width="2" stroke-linecap="round" stroke-linejoin="round" stroke-miterlimit="10" x1="222.803" y1="108.947" x2="205.611" y2="109.777"/>
	
		<line fill="none" stroke="#999999" stroke-width="2" stroke-linecap="round" stroke-linejoin="round" stroke-miterlimit="10" x1="216.344" y1="116.44" x2="213.121" y2="116.593"/>
	
		<line fill="none" stroke="#999999" stroke-width="2" stroke-linecap="round" stroke-linejoin="round" stroke-miterlimit="10" x1="225.676" y1="105.217" x2="201.855" y2="106.369"/>
	
		<line fill="none" stroke="#999999" stroke-width="2" stroke-linecap="round" stroke-linejoin="round" stroke-miterlimit="10" x1="226.695" y1="101.578" x2="198.1" y2="102.96"/>
	
		<line fill="none" stroke="#999999" stroke-width="2" stroke-linecap="round" stroke-linejoin="round" stroke-miterlimit="10" x1="222.941" y1="98.169" x2="194.346" y2="99.551"/>
	
		<line fill="none" stroke="#999999" stroke-width="2" stroke-linecap="round" stroke-linejoin="round" stroke-miterlimit="10" x1="218.85" y1="94.777" x2="197.756" y2="95.797"/>
	
		<line fill="none" stroke="#999999" stroke-width="2" stroke-linecap="round" stroke-linejoin="round" stroke-miterlimit="10" x1="214.998" y1="91.373" x2="201.162" y2="92.042"/>
	
		<line fill="none" stroke="#999999" stroke-width="2" stroke-linecap="round" stroke-linejoin="round" stroke-miterlimit="10" x1="211.07" y1="87.972" x2="204.447" y2="88.292"/>
</g>
<path fill="none" stroke="#999999" stroke-width="2" stroke-linecap="round" stroke-linejoin="round" stroke-miterlimit="10" d="
	M91.938,144.236c0,4.229-6.455,4.303-6.455-0.002c0-3.934,3.488-5.713,7.643-5.713c4.082,0,8.758,3.264,8.758,11.131
	c0,6.797-5.195,9.941-10.686,9.941c-21,0-25.008-38.732-44.969-38.732c-6.529,0-11.278,5.342-11.278,10.686s4.304,8.568,7.021,8.568
	c3.517,0,7.133-2.855,7.133-6.545c0-3.637-1.91-6.848-6.213-4.398"/>
<path fill="none" stroke="#999999" stroke-width="2" stroke-linecap="round" stroke-linejoin="round" stroke-miterlimit="10" d="
	M189.01,144.236c0,4.229,6.455,4.303,6.455-0.002c0-3.934-3.486-5.713-7.643-5.713c-4.082,0-8.756,3.264-8.756,11.131
	c0,6.797,5.193,9.941,10.686,9.941c21,0,25.006-38.732,44.967-38.732c6.531,0,11.279,5.342,11.279,10.686s-4.305,8.568-7.021,8.568
	c-3.516,0-7.131-2.855-7.131-6.545c0-3.637,1.908-6.848,6.213-4.398"/>
<path fill="none" stroke="#999999" stroke-width="2" stroke-linecap="round" stroke-linejoin="round" stroke-miterlimit="10" d="
	M199.01,46.218c0-4.229,6.455-4.303,6.455,0.002c0,3.934-3.488,5.713-7.643,5.713c-4.082,0-8.758-3.264-8.758-11.131
	c0-6.797,5.195-9.941,10.686-9.941c21,0,25.008,38.732,44.969,38.732c6.529,0,11.279-5.342,11.279-10.686s-4.305-8.568-7.021-8.568
	c-3.516,0-7.133,2.855-7.133,6.545c0,3.637,1.91,6.848,6.213,4.398"/>
<path fill="none" stroke="#999999" stroke-width="2" stroke-linecap="round" stroke-linejoin="round" stroke-miterlimit="10" d="
	M81.939,46.218c0-4.229-6.455-4.303-6.455,0.002c0,3.934,3.486,5.713,7.643,5.713c4.082,0,8.756-3.264,8.756-11.131
	c0-6.797-5.193-9.941-10.686-9.941c-21,0-25.006,38.732-44.967,38.732c-6.531,0-11.279-5.342-11.279-10.686s4.305-8.568,7.021-8.568
	c3.516,0,7.131,2.855,7.131,6.545c0,3.637-1.908,6.848-6.213,4.398"/>
<g>
	<path fill="#999999" d="M120.579,47.283c-0.251-0.134-0.563-0.039-0.698,0.212l-0.091,0.172c-0.551,0.987-2.469,3.182-3.84,3.182
		h-7.731V4.294V3.608c0-0.063,0-0.122,0-0.172c0-0.113-0.069-0.166-0.183-0.171h-4.456c-0.285,0-0.516,0.23-0.516,0.515
		s0.231,0.515,0.516,0.515c1.081,0,1.89,0.816,1.89,2.233v42.431c0,1.081-0.502,1.89-1.374,1.89c-0.285,0-0.516,0.23-0.516,0.515
		s0.231,0.515,0.516,0.515h11.51c1.081,0,1.438,0.573,1.707,0.983l0-0.002c0.046,0.074,0.11,0.137,0.191,0.181
		c0.077,0.041,0.16,0.061,0.242,0.061c0.184,0,0.362-0.099,0.455-0.273l2.588-4.849C120.925,47.729,120.83,47.417,120.579,47.283z"
		/>
	<path fill="#999999" d="M161.637,47.283c-0.251-0.134-0.563-0.039-0.698,0.212l-0.092,0.172c-0.55,0.987-2.47,3.182-3.84,3.182
		h-5.153V4.294V3.608c0-0.063,0-0.122,0-0.172c0-0.113-0.07-0.166-0.183-0.171h-3.769c-0.284,0-0.515,0.23-0.515,0.515
		s0.23,0.515,0.515,0.515c1.08,0,1.201,0.816,1.201,2.233v42.431c0,1.081-0.502,1.89-1.373,1.89c-0.285,0-0.516,0.23-0.516,0.515
		s0.23,0.515,0.516,0.515h8.934c1.08,0,1.438,0.573,1.706,0.983l0.001-0.002c0.046,0.074,0.109,0.137,0.191,0.181
		c0.076,0.041,0.159,0.061,0.242,0.061c0.185,0,0.362-0.099,0.454-0.273l2.589-4.849C161.982,47.729,161.888,47.417,161.637,47.283z
		"/>
	<path fill="#999999" d="M133.411,6.82l-2.245-4.505c-0.134-0.252-0.446-0.346-0.696-0.212c-0.072,0.038-0.13,0.092-0.174,0.153
		l-0.001-0.001c-0.437,0.68-1.26,1.009-2.34,1.009h-5.205c-1.081,0-1.904-0.33-2.341-1.009l-0.001,0.001
		c-0.044-0.062-0.102-0.116-0.173-0.153c-0.25-0.134-0.562-0.04-0.697,0.212l-2.589,4.849c-0.134,0.251-0.039,0.563,0.212,0.698
		c0.077,0.041,0.161,0.061,0.242,0.061c0.184,0,0.363-0.1,0.455-0.273l0.04-0.073c0.89-1.716,2.677-3.282,5.023-3.282h1.102v44.281
		c0,1.3-0.701,2.274-2.061,2.274h0.171c-0.285,0-0.515,0.23-0.515,0.515s0.23,0.515,0.515,0.515h6.527
		c0.286,0,0.516-0.23,0.516-0.515s-0.23-0.515-0.516-0.515h0.209c-1.359,0-2.099-0.974-2.099-2.274V4.294h1.01
		c2.348,0,3.791,1.222,4.681,2.938l0.039,0.073c0.093,0.173,0.271,0.273,0.455,0.273c0.082,0,0.165-0.02,0.242-0.061
		C133.45,7.384,133.545,7.071,133.411,6.82z"/>
	<path fill="#999999" d="M148.701,7.164l-2.59-4.849c-0.134-0.252-0.446-0.346-0.697-0.212c-0.07,0.038-0.129,0.092-0.172,0.153
		l-0.002-0.001c-0.437,0.68-1.26,1.009-2.34,1.009h-5.205c-1.081,0-1.904-0.33-2.34-1.009l-0.001,0.001
		c-0.045-0.062-0.103-0.116-0.174-0.153c-0.25-0.134-0.562-0.04-0.697,0.212L132.41,6.82c-0.134,0.251-0.039,0.563,0.213,0.698
		c0.076,0.041,0.16,0.061,0.241,0.061c0.185,0,0.363-0.1,0.455-0.273l0.039-0.073c0.89-1.716,2.161-2.938,4.509-2.938h1.103v44.281
		c0,1.3-0.702,2.274-2.062,2.274h0.171c-0.284,0-0.515,0.23-0.515,0.515s0.23,0.515,0.515,0.515h6.528
		c0.286,0,0.517-0.23,0.517-0.515s-0.23-0.515-0.517-0.515h0.21c-1.36,0-2.099-0.974-2.099-2.274V4.294h1.01
		c2.347,0,4.133,1.565,5.023,3.282l0.04,0.073c0.092,0.173,0.27,0.273,0.453,0.273c0.082,0,0.167-0.02,0.242-0.061
		C148.738,7.728,148.835,7.415,148.701,7.164z"/>
	<path fill="#999999" d="M147.841,59.043l-2.073-4.85c-0.133-0.25-0.447-0.345-0.698-0.212c-0.069,0.038-0.127,0.092-0.172,0.153v0
		c-0.438,0.679-1.261,1.009-2.341,1.009h-5.205c-1.081,0-1.904-0.33-2.341-1.009v0c-0.045-0.061-0.103-0.115-0.174-0.153
		c-0.25-0.133-0.563-0.039-0.697,0.212l-1.729,4.678c-0.134,0.251-0.039,0.563,0.212,0.697c0.077,0.042,0.161,0.061,0.242,0.061
		c0.185,0,0.363-0.098,0.455-0.272l0.039-0.073c0.89-1.717,1.817-3.11,4.165-3.11h1.103v44.28c0,1.301-0.702,2.274-2.062,2.274
		h0.171c-0.284,0-0.515,0.23-0.515,0.515c0,0.285,0.23,0.516,0.515,0.516h6.528c0.285,0,0.516-0.23,0.516-0.516
		c0-0.284-0.23-0.515-0.516-0.515h0.209c-1.358,0-2.099-0.974-2.099-2.274v-44.28h1.01c2.347,0,3.62,1.565,4.51,3.282l0.038,0.073
		c0.094,0.174,0.271,0.273,0.456,0.273c0.081,0,0.164-0.02,0.242-0.061C147.881,59.607,147.976,59.294,147.841,59.043z"/>
	<path fill="#999999" d="M163.303,59.043l-2.589-4.85c-0.134-0.25-0.446-0.345-0.697-0.212c-0.071,0.038-0.129,0.092-0.174,0.153v0
		c-0.438,0.679-1.261,1.009-2.341,1.009h-5.205c-1.08,0-1.903-0.33-2.341-1.009v0c-0.045-0.061-0.103-0.115-0.174-0.153
		c-0.249-0.133-0.563-0.039-0.697,0.212l-2.074,4.85c-0.133,0.251-0.038,0.563,0.213,0.698c0.077,0.041,0.161,0.061,0.242,0.061
		c0.185,0,0.362-0.099,0.456-0.273l0.037-0.073c0.891-1.716,2.163-3.282,4.51-3.282h1.103v44.28c0,1.301-0.702,2.274-2.062,2.274
		h0.172c-0.284,0-0.515,0.23-0.515,0.515c0,0.285,0.23,0.516,0.515,0.516h6.528c0.285,0,0.516-0.23,0.516-0.516
		c0-0.284-0.23-0.515-0.516-0.515h0.209c-1.358,0-2.099-0.974-2.099-2.274v-44.28h1.01c2.349,0,4.135,1.565,5.025,3.282l0.038,0.073
		c0.094,0.174,0.271,0.273,0.455,0.273c0.082,0,0.165-0.02,0.242-0.061C163.341,59.607,163.436,59.294,163.303,59.043z"/>
	<path fill="#999999" d="M176.409,47.283c-0.251-0.134-0.563-0.039-0.697,0.212l-0.092,0.172c-0.551,0.987-2.468,3.182-3.84,3.182
		h-6.527V13.571h1.203c1.08,0,1.889,0.816,1.889,2.233v-0.171c0,0.285,0.23,0.515,0.517,0.515c0.284,0,0.515-0.23,0.515-0.515
		v-5.153c0-0.286-0.23-0.516-0.515-0.516c-0.286,0-0.517,0.23-0.517,0.516v-0.172c0,1.417-0.809,2.234-1.889,2.234h-1.203V4.294
		h3.192c2.067,0,4.049,1.893,4.788,3.216l0.073,0.139c0.094,0.173,0.271,0.273,0.455,0.273c0.082,0,0.165-0.02,0.242-0.061
		c0.251-0.134,0.347-0.447,0.212-0.698l-2.588-4.849c-0.134-0.251-0.446-0.347-0.697-0.212c-0.02,0.009-0.034,0.022-0.051,0.034
		V2.134c-0.006,0.005-0.012,0.009-0.018,0.015c-0.014,0.009-0.025,0.02-0.037,0.03c-0.792,0.674-1.792,1.086-3.025,1.086h-7.529
		c-0.285,0-0.516,0.23-0.516,0.515s0.23,0.515,0.516,0.515h0.345c1.08,0,1.888,0.816,1.888,2.233v42.431
		c0,1.081-0.502,1.89-1.373,1.89h0.172c-0.284,0-0.517,0.23-0.517,0.515s0.232,0.515,0.517,0.515h10.136
		c1.081,0,1.438,0.573,1.706,0.983l0.001-0.002c0.047,0.074,0.109,0.137,0.191,0.181c0.077,0.041,0.16,0.061,0.242,0.061
		c0.184,0,0.362-0.099,0.455-0.273l2.588-4.849C176.756,47.729,176.66,47.417,176.409,47.283z"/>
	<path fill="#999999" d="M133.979,98.991c-0.252-0.135-0.563-0.04-0.698,0.211l-0.091,0.173c-0.551,0.987-2.469,3.182-3.84,3.182
		h-6.528V65.279h1.202c1.082,0,1.89,0.816,1.89,2.233V67.34c0,0.285,0.23,0.516,0.515,0.516s0.515-0.231,0.515-0.516v-5.154
		c0-0.285-0.23-0.515-0.515-0.515s-0.515,0.23-0.515,0.515v-0.171c0,1.417-0.809,2.233-1.89,2.233h-1.202v-8.245h3.192
		c2.068,0,4.049,1.892,4.788,3.216l0.074,0.139c0.093,0.174,0.271,0.272,0.455,0.272c0.082,0,0.165-0.019,0.242-0.061
		c0.251-0.134,0.346-0.446,0.212-0.697l-2.588-4.85c-0.134-0.251-0.446-0.346-0.698-0.211c-0.018,0.009-0.034,0.022-0.05,0.034
		l-0.001-0.002c-0.005,0.004-0.011,0.01-0.017,0.014c-0.013,0.009-0.024,0.02-0.036,0.03c-0.794,0.674-1.793,1.085-3.025,1.085
		h-7.53c-0.285,0-0.515,0.23-0.515,0.516c0,0.285,0.23,0.516,0.515,0.516h0.344c1.081,0,1.89,0.816,1.89,2.233v42.432
		c0,1.081-0.502,1.889-1.375,1.889h0.172c-0.285,0-0.516,0.231-0.516,0.516c0,0.285,0.231,0.516,0.516,0.516h10.135
		c1.081,0,1.439,0.573,1.708,0.982v-0.001c0.046,0.072,0.109,0.137,0.191,0.18c0.077,0.042,0.16,0.062,0.242,0.062
		c0.184,0,0.362-0.1,0.455-0.272l2.588-4.85C134.324,99.436,134.229,99.125,133.979,98.991z"/>
	<g>
		<path fill="#999999" d="M116.551,12.371c-0.422,0-0.682,0.289-0.838,0.476c-0.156,0.187-0.456,0.53-0.456,0.53
			s-0.281-0.344-0.437-0.53c-0.155-0.188-0.396-0.476-0.817-0.476c-0.421,0-0.951,0.491-0.951,0.944
			c0,0.452,0.042,0.676,0.195,0.983c0.154,0.308,0.723,1.313,1.147,2.021c0.424,0.707,0.613,0.918,0.862,0.918
			s0.459-0.211,0.883-0.918c0.424-0.708,1.004-1.712,1.158-2.021c0.153-0.307,0.201-0.531,0.201-0.983
			C117.499,12.862,116.972,12.371,116.551,12.371z"/>
	</g>
	<path fill="#999999" d="M118.011,45.18L118.011,45.18c-0.891,0-1.375-0.637-1.375-1.489V22.676c0-0.852,0.484-1.546,1.375-1.546
		l0,0c0.285,0,0.516-0.23,0.516-0.516c0-0.285-0.231-0.516-0.516-0.516h-5.498c-0.285,0-0.515,0.231-0.515,0.516
		c0,0.285,0.23,0.516,0.515,0.516h-0.028c0.89,0,1.403,0.695,1.403,1.546v21.015c0,0.852-0.513,1.489-1.403,1.489h0.028
		c-0.285,0-0.515,0.23-0.515,0.515c0,0.286,0.23,0.516,0.515,0.516h1.375h2.748h1.375c0.285,0,0.516-0.23,0.516-0.516
		C118.527,45.41,118.296,45.18,118.011,45.18z"/>
	<path fill="#999999" d="M175.611,53.745c-0.124-0.184-0.294-0.156-0.514,0c-0.222,0.155-1.313,0.883-2.33,0.883h-2.018
		c-0.285,0-0.516,0.231-0.516,0.516c0,0.284,0.23,0.515,0.516,0.515h0.959c0.585,0,2.338,0.242,1.605,2.788l-4.086,14.144
		c-0.405-0.476-0.795-0.925-1.158-1.346c-3.153-3.655-4.901-5.667-4.901-9.23c0-4.095,3.085-6.356,5.49-6.356h0.202
		c0.284,0,0.515-0.231,0.515-0.516c0-0.285-0.23-0.515-0.515-0.515h-5.671c-0.284,0-0.515,0.23-0.515,0.515
		c0,0.285,0.23,0.516,0.515,0.516h0.853c-0.242,0.17-0.475,0.366-0.69,0.594c-1.357,1.428-2.051,3.42-2.051,5.762
		c0,4.266,2.128,6.731,5.35,10.464c0.594,0.69,1.257,1.457,1.95,2.289l-6.269,21.709v-2.854c0-0.284-0.231-0.515-0.516-0.515
		s-0.516,0.23-0.516,0.515v9.792c0,0.284,0.193,0.516,0.478,0.516c0.174,0,0.381-0.086,0.381-0.217v0.001l0.038-0.001
		c0.06-0.085,0.135-0.188,0.135-0.299V103.4l12.913-42.149c-0.015,0.047-0.223,0.773,0.161-0.527
		c0.396-1.343,0.999-3.008,1.004-4.557C176.415,54.618,175.862,54.112,175.611,53.745z"/>
	<path fill="#999999" d="M100.661,0v105.219v1.89v11.939h78.162V0H100.661z M102.55,1.889h74.383v103.33H102.55V1.889z
		 M102.55,117.159v-10.05h74.383v10.05H102.55z"/>
	<g id="Ornament_1_">
		<path fill="#999999" d="M130.459,113.036c-1.539,0-4.674,0-6.17,0c-0.115,0-0.347-0.073-0.435-0.146
			c-0.811-0.663-2.319-2.056-3.145-2.695c-0.148-0.115,0.034-0.251,0.101-0.251c0.58,0,4.625,0,6.121,0
			c0.152,0,0.468,0.089,0.581,0.19c0.729,0.661,2.553,2.185,3.059,2.622C130.702,112.871,130.617,113.036,130.459,113.036z"/>
		<path fill="#999999" d="M150.032,113.036c1.538,0,4.675,0,6.171,0c0.113,0,0.346-0.073,0.435-0.146
			c0.81-0.663,2.319-2.056,3.146-2.695c0.147-0.115-0.034-0.251-0.103-0.251c-0.579,0-4.624,0-6.12,0
			c-0.151,0-0.467,0.089-0.58,0.19c-0.73,0.661-2.553,2.185-3.06,2.622C149.79,112.871,149.874,113.036,150.032,113.036z"/>
		<g>
			<path fill="#999999" d="M142.193,108.8c-0.551,0-0.89,0.377-1.094,0.622c-0.204,0.244-0.596,0.692-0.596,0.692
				s-0.367-0.448-0.57-0.692c-0.204-0.245-0.518-0.622-1.067-0.622c-0.551,0-1.242,0.643-1.242,1.233s0.056,0.882,0.256,1.284
				s0.944,1.715,1.498,2.64c0.554,0.923,0.8,1.197,1.126,1.197c0.327,0,0.601-0.274,1.153-1.197c0.555-0.925,1.311-2.237,1.512-2.64
				c0.2-0.401,0.263-0.693,0.263-1.284S142.743,108.8,142.193,108.8z"/>
		</g>
	</g>
	<path fill="#999999" d="M118.87,102.9L118.87,102.9c-0.891,0-1.375-0.637-1.375-1.488V57.033c0-0.851,0.484-1.546,1.375-1.546l0,0
		c0.284,0,0.516-0.231,0.516-0.516s-0.231-0.515-0.516-0.515h-4.295c-0.285,0-0.515,0.23-0.515,0.515s0.23,0.516,0.515,0.516h-0.028
		c0.89,0,1.403,0.695,1.403,1.546V79.38l-9.853-24.75c-0.049-0.126-0.122-0.174-0.204-0.174h-0.251h-2.573h-0.347
		c-0.285,0-0.516,0.23-0.516,0.515s0.231,0.516,0.516,0.516h0.758l1.304,3.275v42.649c0,0.852-0.512,1.488-1.403,1.488h0.028
		c-0.284,0-0.515,0.231-0.515,0.516s0.231,0.516,0.515,0.516h4.295c0.285,0,0.515-0.231,0.515-0.516s-0.23-0.516-0.515-0.516l0,0
		c-0.891,0-1.374-0.637-1.374-1.488V61.867l9.62,24.944v14.601c0,0.852-0.513,1.488-1.403,1.488h0.028
		c-0.285,0-0.515,0.231-0.515,0.516s0.23,0.516,0.515,0.516h4.295c0.284,0,0.516-0.231,0.516-0.516S119.154,102.9,118.87,102.9z"/>
</g>
</svg>
