<?xml version="1.0" encoding="utf-8"?>
<!-- Generator: Adobe Illustrator 16.0.0, SVG Export Plug-In . SVG Version: 6.00 Build 0)  -->
<!DOCTYPE svg PUBLIC "-//W3C//DTD SVG 1.1//EN" "http://www.w3.org/Graphics/SVG/1.1/DTD/svg11.dtd">
<svg version="1.1" id="Layer_1" xmlns="http://www.w3.org/2000/svg" xmlns:xlink="http://www.w3.org/1999/xlink" x="0px" y="0px"
	 width="112.482px" height="74.454px" viewBox="0 0 112.482 74.454" enable-background="new 0 0 112.482 74.454"
	 xml:space="preserve">
<g>
	<path d="M112.402,73.061l-5.172-12.119c-0.157-0.368-0.52-0.607-0.92-0.607H91.237v-3.248c0-0.553-0.447-1-1-1H83.62
		c-0.622-2.457-2.546-10.447-2.546-15.26c0-2.88,0.909-5.053,1.789-7.154c0.49-1.171,0.985-2.369,1.319-3.669h3.391v6.389
		c0,2.079,1.691,3.771,3.771,3.771c2.08,0,3.771-1.691,3.771-3.771v-6.389h0.848c2.08,0,3.771-1.692,3.771-3.772
		c0-2.079-1.691-3.771-3.771-3.771h-0.848v-6.391c0-2.079-1.691-3.771-3.771-3.771c-2.079,0-3.771,1.692-3.771,3.771v6.391h-3.69
		c-1.409-4.341-5.001-7.863-11.11-8.099V1c0-0.552-0.447-1-1-1s-1,0.448-1,1v13.387c-3.296,0.26-6.111,1.43-9.311,2.763
		c-4.727,1.97-10.085,4.202-18.892,4.202c-14.229,0-14.703-4.711-14.705-4.728c0-0.552-0.448-1-1-1h-3.63v-1.14h0.57
		c1.57,0,2.848-1.278,2.848-2.848s-1.277-2.848-2.848-2.848h-3.142c-1.57,0-2.848,1.277-2.848,2.848s1.277,2.848,2.848,2.848h0.571
		v1.14H19.66c-0.552,0-1,0.448-1,1v27.898c0,0.279,0.117,0.546,0.322,0.734c0.205,0.189,0.48,0.283,0.758,0.263l1.496-0.119v4.45
		h-1.524c-0.312,0-0.605,0.146-0.794,0.393c-0.189,0.247-0.252,0.568-0.171,0.869l0.9,3.324c0.118,0.436,0.514,0.738,0.965,0.738
		h0.624v0.006c0,0.404,0.243,0.749,0.588,0.906h-8.815c-0.552,0-1,0.447-1,1v3.248H4.51c-0.445,0-0.837,0.294-0.96,0.722
		l-3.51,12.119c-0.087,0.302-0.028,0.628,0.161,0.879C0.389,74.306,0.685,74.454,1,74.454h110.482c0.336,0,0.649-0.169,0.834-0.449
		C112.502,73.724,112.534,73.37,112.402,73.061z M95.116,24.46h0.847c0.977,0,1.771,0.794,1.771,1.771
		c0,0.977-0.795,1.772-1.771,1.772h-0.847V24.46z M19.816,11.636c0-0.467,0.38-0.848,0.848-0.848h3.142
		c0.467,0,0.848,0.38,0.848,0.848c0,0.468-0.38,0.848-0.848,0.848H22.24c-0.002,0-0.003-0.001-0.005-0.001s-0.003,0.001-0.005,0.001
		h-1.566C20.197,12.484,19.816,12.104,19.816,11.636z M91.344,14.298c0.977,0,1.771,0.794,1.771,1.771v20.323
		c0,0.976-0.795,1.771-1.771,1.771s-1.771-0.794-1.771-1.771v-7.384c0-0.002,0.001-0.003,0.001-0.005V23.46
		c0-0.001-0.001-0.003-0.001-0.005v-7.386C89.573,15.092,90.367,14.298,91.344,14.298z M84.371,24.46h3.202v3.543h-3.034
		c0.001-0.015,0.001-0.03,0.002-0.045c0.027-0.321,0.044-0.649,0.044-0.986c0-0.416-0.02-0.831-0.053-1.245
		c-0.004-0.042-0.012-0.084-0.016-0.127c-0.034-0.379-0.081-0.756-0.145-1.13C84.372,24.466,84.372,24.463,84.371,24.46z
		 M20.66,17.624h5.396c0.664,1.911,3.606,5.728,16.514,5.728c9.207,0,15.003-2.416,19.661-4.356c3.432-1.43,6.396-2.665,9.899-2.665
		c6.048,0,9.027,3.523,10.038,7.409c0.133,0.507,0.235,1.034,0.305,1.565c0.003,0.022,0.004,0.045,0.007,0.067
		c0.067,0.533,0.104,1.071,0.104,1.599c0,0.289-0.016,0.576-0.042,0.863c-0.008,0.091-0.022,0.18-0.033,0.27
		c-0.024,0.199-0.051,0.399-0.088,0.601c-0.265,1.462-0.82,2.802-1.403,4.195c-0.911,2.177-1.944,4.645-1.944,7.927
		c0,4.807,1.741,12.293,2.482,15.26H58.191c2.487-2.121,5.887-5.976,5.887-11.195c0-10.664-7.435-13.747-33.147-13.747
		c-1.742,0-3.235,0.628-4.437,1.868c-2.723,2.808-3.152,8.059-3.21,10.217l-2.623,0.21V17.624z M23.451,51.85l-0.358,1.324h-1.717
		l-0.358-1.324H23.451z M23.235,55.18v-0.006h0.624c0.452,0,0.848-0.303,0.965-0.739l0.898-3.324
		c0.081-0.301,0.018-0.621-0.171-0.868c-0.189-0.248-0.483-0.393-0.794-0.393h-1.522v-4.61l1.124-0.09
		c0.531-0.043,0.936-0.495,0.92-1.027c-0.002-0.067-0.168-6.814,2.653-9.72c0.822-0.847,1.803-1.258,2.999-1.258
		c28.979,0,31.147,4.651,31.147,11.747c0,6.254-6.048,10.437-7.233,11.195H22.647C22.992,55.929,23.235,55.584,23.235,55.18z
		 M14.009,58.086h41.124h27.713h6.392v2.248H14.009V58.086z M2.33,72.454l2.931-10.119h7.748h77.229h15.413l4.318,10.119H2.33z"/>
	<path d="M72.5,53.836c2.589,0,4.695-2.106,4.695-4.695s-2.106-4.695-4.695-4.695s-4.694,2.106-4.694,4.695
		S69.911,53.836,72.5,53.836z M72.5,46.446c1.486,0,2.695,1.209,2.695,2.695s-1.209,2.695-2.695,2.695
		c-1.485,0-2.694-1.209-2.694-2.695S71.014,46.446,72.5,46.446z"/>
</g>
</svg>
