<?xml version="1.0" encoding="utf-8"?>
<!-- Generator: Adobe Illustrator 16.0.0, SVG Export Plug-In . SVG Version: 6.00 Build 0)  -->
<!DOCTYPE svg PUBLIC "-//W3C//DTD SVG 1.1//EN" "http://www.w3.org/Graphics/SVG/1.1/DTD/svg11.dtd">
<svg version="1.1" id="Layer_1" xmlns="http://www.w3.org/2000/svg" xmlns:xlink="http://www.w3.org/1999/xlink" x="0px" y="0px"
	 width="41.083px" height="64.5px" viewBox="0 0 41.083 64.5" enable-background="new 0 0 41.083 64.5" xml:space="preserve">
<g>
	<path stroke-width="2" stroke-linecap="round" stroke-linejoin="round" stroke-miterlimit="10" d="
		M13.162,17.119c0,0-5.607,8.851-5.607,16.862c0,8.465,4.205,14.058,12.451,14.058c8.795,0,13.825-6.293,13.825-13.329
		c0-8.672-6.528-17.137-6.528-17.137s6.528-0.165,6.528-6.83c0-4.425-3.106-6.115-5.662-6.115c-4.508,0-8.369,2.803-8.369,2.803
		s-3.752-2.68-8.246-2.68c-2.927,0-4.878,2.099-4.878,6.016C6.676,16.456,13.162,17.119,13.162,17.119z"/>
	<path stroke-width="2" stroke-linecap="round" stroke-linejoin="round" stroke-miterlimit="10" d="
		M20.253,39.877c0,0,0,7.792,0,11.543c0,8.905,3.875,12.08,9.812,12.08c5.441,0,9.977-4.288,9.977-8.452
		c0-3.545-2.103-6.514-6.926-6.514c-3.464,0-5.689,1.896-5.689,5.112c0,2.474,1.525,4.123,3.339,4.123
		c0.967,0,2.419-1.039,2.419-2.523c0-1.559-1.1-3.558-3.037-2.466"/>
	<path stroke-width="2" stroke-linecap="round" stroke-linejoin="round" stroke-miterlimit="10" d="
		M15.074,5.26c0,0,3.9-4.26,4.891-4.26c0.989,0,3.979,4.372,3.979,4.372"/>
	
		<line stroke-width="2" stroke-linecap="round" stroke-linejoin="round" stroke-miterlimit="10" x1="6.7" y1="10.031" x2="1" y2="10.44"/>
	
		<line stroke-width="2" stroke-linecap="round" stroke-linejoin="round" stroke-miterlimit="10" x1="7.08" y1="13.027" x2="2.278" y2="15.264"/>
	
		<line stroke-width="2" stroke-linecap="round" stroke-linejoin="round" stroke-miterlimit="10" x1="9.595" y1="15.892" x2="4.442" y2="19.428"/>
	
		<line stroke-width="2" stroke-linecap="round" stroke-linejoin="round" stroke-miterlimit="10" x1="33.666" y1="9.08" x2="40.083" y2="9.08"/>
	
		<line stroke-width="2" stroke-linecap="round" stroke-linejoin="round" stroke-miterlimit="10" x1="33.553" y1="12.942" x2="38.682" y2="14.007"/>
	
		<line stroke-width="2" stroke-linecap="round" stroke-linejoin="round" stroke-miterlimit="10" x1="32.209" y1="15.399" x2="38.228" y2="19.84"/>
</g>
</svg>
