<?xml version="1.0" encoding="utf-8"?>
<!-- Generator: Adobe Illustrator 16.0.0, SVG Export Plug-In . SVG Version: 6.00 Build 0)  -->
<!DOCTYPE svg PUBLIC "-//W3C//DTD SVG 1.1//EN" "http://www.w3.org/Graphics/SVG/1.1/DTD/svg11.dtd">
<svg version="1.1" id="Layer_1" xmlns="http://www.w3.org/2000/svg" xmlns:xlink="http://www.w3.org/1999/xlink" x="0px" y="0px"
	 width="233.312px" height="64.5px" viewBox="0 0 233.312 64.5" enable-background="new 0 0 233.312 64.5" xml:space="preserve">
<g>
	<path fill="none" stroke-width="2" stroke-linecap="round" stroke-linejoin="round" stroke-miterlimit="10" d="
		M99.332,828.119c0,0-5.607,8.851-5.607,16.862c0,8.465,4.205,14.058,12.451,14.058c8.795,0,13.825-6.293,13.825-13.329
		c0-8.672-6.528-17.137-6.528-17.137s6.528-0.165,6.528-6.83c0-4.425-3.106-6.115-5.662-6.115c-4.508,0-8.369,2.803-8.369,2.803
		s-3.752-2.68-8.246-2.68c-2.927,0-4.878,2.099-4.878,6.016C92.846,827.456,99.332,828.119,99.332,828.119z"/>
	<path fill="none" stroke-width="2" stroke-linecap="round" stroke-linejoin="round" stroke-miterlimit="10" d="
		M106.423,850.877c0,0,0,7.792,0,11.543c0,8.905,3.875,12.08,9.812,12.08c5.441,0,9.977-4.288,9.977-8.452
		c0-3.545-2.103-6.514-6.926-6.514c-3.464,0-5.689,1.896-5.689,5.112c0,2.474,1.525,4.123,3.339,4.123
		c0.967,0,2.419-1.039,2.419-2.523c0-1.559-1.1-3.558-3.037-2.466"/>
	<path fill="none" stroke-width="2" stroke-linecap="round" stroke-linejoin="round" stroke-miterlimit="10" d="
		M101.244,816.26c0,0,3.9-4.26,4.891-4.26c0.989,0,3.979,4.372,3.979,4.372"/>
	
		<line fill="none" stroke-width="2" stroke-linecap="round" stroke-linejoin="round" stroke-miterlimit="10" x1="92.87" y1="821.031" x2="87.17" y2="821.44"/>
	
		<line fill="none" stroke-width="2" stroke-linecap="round" stroke-linejoin="round" stroke-miterlimit="10" x1="93.25" y1="824.027" x2="88.448" y2="826.264"/>
	
		<line fill="none" stroke-width="2" stroke-linecap="round" stroke-linejoin="round" stroke-miterlimit="10" x1="95.765" y1="826.892" x2="90.612" y2="830.428"/>
	
		<line fill="none" stroke-width="2" stroke-linecap="round" stroke-linejoin="round" stroke-miterlimit="10" x1="119.836" y1="820.08" x2="126.253" y2="820.08"/>
	
		<line fill="none" stroke-width="2" stroke-linecap="round" stroke-linejoin="round" stroke-miterlimit="10" x1="119.723" y1="823.942" x2="124.852" y2="825.007"/>
	
		<line fill="none" stroke-width="2" stroke-linecap="round" stroke-linejoin="round" stroke-miterlimit="10" x1="118.379" y1="826.399" x2="124.397" y2="830.84"/>
</g>
<path fill="none" stroke-width="2" stroke-linecap="round" stroke-linejoin="round" stroke-miterlimit="10" d="
	M72.511,838.553c1.094,5.788-7.723,7.561-8.835,1.668c-1.018-5.385,3.295-8.723,8.983-9.797c5.587-1.055,12.831,2.205,14.865,12.973
	c1.756,9.305-4.542,14.953-12.057,16.371c-28.746,5.43-44.243-46.555-71.566-41.395c-8.94,1.689-14.058,10.229-12.677,17.542
	c1.38,7.313,8.106,10.616,11.826,9.913c4.812-0.908,9.025-5.751,8.071-10.802c-0.941-4.978-4.384-8.879-9.642-4.415"/>
<path fill="none" stroke-width="2" stroke-linecap="round" stroke-linejoin="round" stroke-miterlimit="10" d="
	M140.801,838.553c-1.094,5.788,7.723,7.561,8.835,1.668c1.018-5.385-3.296-8.723-8.983-9.797
	c-5.587-1.055-12.83,2.205-14.864,12.973c-1.757,9.305,4.542,14.953,12.058,16.371c28.746,5.43,44.242-46.555,71.565-41.395
	c8.94,1.689,14.058,10.229,12.677,17.542c-1.38,7.313-8.105,10.616-11.825,9.913c-4.812-0.908-9.025-5.751-8.071-10.802
	c0.941-4.978,4.385-8.879,9.643-4.415"/>
<g>
	<path fill="none" stroke-width="2" stroke-linecap="round" stroke-linejoin="round" stroke-miterlimit="10" d="
		M109.332,17.119c0,0-5.607,8.851-5.607,16.862c0,8.465,4.205,14.058,12.451,14.058c8.795,0,13.825-6.293,13.825-13.329
		c0-8.672-6.528-17.137-6.528-17.137s6.528-0.165,6.528-6.83c0-4.425-3.106-6.115-5.662-6.115c-4.508,0-8.369,2.803-8.369,2.803
		s-3.752-2.68-8.246-2.68c-2.927,0-4.878,2.099-4.878,6.016C102.846,16.456,109.332,17.119,109.332,17.119z"/>
	<path fill="none" stroke-width="2" stroke-linecap="round" stroke-linejoin="round" stroke-miterlimit="10" d="
		M116.423,39.877c0,0,0,7.792,0,11.543c0,8.905,3.875,12.08,9.812,12.08c5.441,0,9.977-4.288,9.977-8.452
		c0-3.545-2.103-6.514-6.926-6.514c-3.464,0-5.689,1.896-5.689,5.112c0,2.474,1.525,4.123,3.339,4.123
		c0.967,0,2.419-1.039,2.419-2.523c0-1.559-1.1-3.558-3.037-2.466"/>
	<path fill="none" stroke-width="2" stroke-linecap="round" stroke-linejoin="round" stroke-miterlimit="10" d="
		M111.244,5.26c0,0,3.9-4.26,4.891-4.26c0.989,0,3.979,4.372,3.979,4.372"/>
	
		<line fill="none" stroke-width="2" stroke-linecap="round" stroke-linejoin="round" stroke-miterlimit="10" x1="102.87" y1="10.031" x2="97.17" y2="10.44"/>
	
		<line fill="none" stroke-width="2" stroke-linecap="round" stroke-linejoin="round" stroke-miterlimit="10" x1="103.25" y1="13.027" x2="98.448" y2="15.264"/>
	
		<line fill="none" stroke-width="2" stroke-linecap="round" stroke-linejoin="round" stroke-miterlimit="10" x1="105.765" y1="15.892" x2="100.612" y2="19.428"/>
	
		<line fill="none" stroke-width="2" stroke-linecap="round" stroke-linejoin="round" stroke-miterlimit="10" x1="129.836" y1="9.08" x2="136.253" y2="9.08"/>
	
		<line fill="none" stroke-width="2" stroke-linecap="round" stroke-linejoin="round" stroke-miterlimit="10" x1="129.723" y1="12.942" x2="134.852" y2="14.007"/>
	
		<line fill="none" stroke-width="2" stroke-linecap="round" stroke-linejoin="round" stroke-miterlimit="10" x1="128.379" y1="15.399" x2="134.397" y2="19.84"/>
</g>
<path fill="none" stroke-width="2" stroke-linecap="round" stroke-linejoin="round" stroke-miterlimit="10" d="
	M82.511,27.553c1.094,5.788-7.723,7.561-8.835,1.668c-1.018-5.385,3.295-8.723,8.983-9.797c5.587-1.055,12.831,2.205,14.865,12.973
	c1.756,9.305-4.542,14.953-12.057,16.371C56.72,54.197,41.224,2.213,13.9,7.373C4.96,9.062-0.158,17.602,1.223,24.915
	c1.38,7.313,8.106,10.616,11.826,9.913c4.812-0.908,9.025-5.751,8.071-10.802c-0.941-4.978-4.384-8.879-9.642-4.415"/>
<path fill="none" stroke-width="2" stroke-linecap="round" stroke-linejoin="round" stroke-miterlimit="10" d="
	M150.801,27.553c-1.094,5.788,7.723,7.561,8.835,1.668c1.018-5.385-3.296-8.723-8.983-9.797c-5.587-1.055-12.83,2.205-14.864,12.973
	c-1.757,9.305,4.542,14.953,12.058,16.371c28.746,5.43,44.242-46.555,71.565-41.395c8.94,1.689,14.058,10.229,12.677,17.542
	c-1.38,7.313-8.105,10.616-11.825,9.913c-4.812-0.908-9.025-5.751-8.071-10.802c0.941-4.978,4.385-8.879,9.643-4.415"/>
</svg>
