<?xml version="1.0" encoding="utf-8"?>
<!-- Generator: Adobe Illustrator 16.0.0, SVG Export Plug-In . SVG Version: 6.00 Build 0)  -->
<!DOCTYPE svg PUBLIC "-//W3C//DTD SVG 1.1//EN" "http://www.w3.org/Graphics/SVG/1.1/DTD/svg11.dtd">
<svg version="1.1" id="Rebuild" xmlns="http://www.w3.org/2000/svg" xmlns:xlink="http://www.w3.org/1999/xlink" x="0px" y="0px"
	 width="455px" height="693px" viewBox="0 0 455 693" enable-background="new 0 0 455 693" xml:space="preserve">
<g id="Letters">
	<path fill="#888888" d="M115.946,275.239c-1.46-0.78-3.279-0.229-4.059,1.234l-0.534,1.001C108.147,283.222,96.98,296,89,296H44V25
		v-4c0-0.367,0-0.71,0-1c0-0.656-0.406-0.97-1.062-1H17c-1.657,0-3,1.343-3,3s1.343,3,3,3c6.291,0,11,4.75,11,13v247
		c0,6.291-2.923,11-8,11c-1.657,0-3,1.343-3,3s1.343,3,3,3h67c6.291,0,8.375,3.335,9.935,5.721l0.005-0.011
		c0.269,0.427,0.637,0.798,1.113,1.052c0.45,0.24,0.933,0.354,1.41,0.354c1.072,0,2.109-0.576,2.649-1.588l15.068-28.23
		C117.96,277.836,117.408,276.019,115.946,275.239z"/>
	<path fill="#888888" d="M354.946,275.239c-1.46-0.78-3.278-0.229-4.06,1.234l-0.533,1.001C347.146,283.222,335.98,296,328,296h-30
		V25v-4c0-0.367,0-0.71,0-1c0-0.656-0.406-0.97-1.062-1H275c-1.656,0-3,1.343-3,3s1.344,3,3,3c6.291,0,7,4.75,7,13v247
		c0,6.291-2.924,11-8,11c-1.656,0-3,1.343-3,3s1.344,3,3,3h52c6.291,0,8.375,3.335,9.935,5.721l0.005-0.011
		c0.269,0.427,0.637,0.798,1.113,1.052c0.449,0.24,0.934,0.354,1.41,0.354c1.072,0,2.109-0.576,2.648-1.588l15.068-28.23
		C356.961,277.836,356.408,276.019,354.946,275.239z"/>
	<path fill="#888888" d="M190.646,39.703l-13.068-26.23c-0.781-1.462-2.6-2.013-4.059-1.234c-0.417,0.222-0.75,0.535-1.008,0.893
		l-0.004-0.007C169.964,17.082,165.172,19,158.881,19h-30.297c-6.291,0-11.083-1.918-13.625-5.875l-0.004,0.007
		c-0.259-0.358-0.592-0.671-1.008-0.893c-1.459-0.779-3.278-0.228-4.059,1.234l-15.068,28.23c-0.78,1.461-0.228,3.279,1.234,4.059
		c0.45,0.24,0.933,0.354,1.41,0.354c1.072,0,2.109-0.576,2.649-1.588l0.226-0.424C105.518,34.113,115.921,25,129.584,25H136v257.764
		c0,7.57-4.085,13.236-12,13.236h1c-1.657,0-3,1.343-3,3s1.343,3,3,3h38c1.657,0,3-1.343,3-3s-1.343-3-3-3h1.219
		c-7.915,0-12.219-5.666-12.219-13.236V25h5.881c13.663,0,22.066,7.113,27.246,17.104l0.226,0.424
		c0.54,1.012,1.577,1.588,2.649,1.588c0.477,0,0.96-0.114,1.41-0.354C190.874,42.981,191.426,41.164,190.646,39.703z"/>
	<path fill="#888888" d="M279.646,41.703l-15.068-28.23c-0.781-1.462-2.601-2.013-4.06-1.234c-0.417,0.222-0.749,0.535-1.009,0.893
		l-0.004-0.007C256.964,17.082,252.172,19,245.881,19h-30.297c-6.291,0-11.083-1.918-13.625-5.875l-0.004,0.007
		c-0.259-0.358-0.592-0.671-1.008-0.893c-1.459-0.779-3.278-0.228-4.059,1.234l-12.068,26.23c-0.78,1.461-0.228,3.279,1.234,4.059
		c0.45,0.24,0.933,0.354,1.41,0.354c1.072,0,2.109-0.576,2.649-1.588l0.226-0.424C195.518,32.113,202.921,25,216.584,25H223v257.764
		c0,7.57-4.085,13.236-12,13.236h1c-1.657,0-3,1.343-3,3s1.343,3,3,3h38c1.656,0,3-1.343,3-3s-1.344-3-3-3h1.219
		c-7.914,0-12.219-5.666-12.219-13.236V25h5.881c13.663,0,24.066,9.113,29.246,19.104l0.227,0.424
		c0.539,1.012,1.576,1.588,2.648,1.588c0.477,0,0.961-0.114,1.41-0.354C279.874,44.981,280.426,43.164,279.646,41.703z"/>
	<path fill="#888888" d="M274.646,343.703l-12.068-28.23c-0.781-1.462-2.601-2.013-4.06-1.234c-0.417,0.222-0.749,0.535-1.009,0.893
		l-0.004-0.007c-2.542,3.958-7.334,5.875-13.625,5.875h-30.297c-6.291,0-11.083-1.918-13.625-5.875l-0.004,0.007
		c-0.259-0.358-0.592-0.671-1.008-0.893c-1.459-0.779-3.278-0.228-4.059,1.234l-10.068,27.23c-0.78,1.461-0.228,3.279,1.234,4.059
		c0.45,0.24,0.933,0.354,1.41,0.354c1.072,0,2.109-0.576,2.649-1.588l0.226-0.424c5.18-9.991,10.583-18.104,24.246-18.104H221
		v257.764c0,7.57-4.085,13.236-12,13.236h1c-1.657,0-3,1.344-3,3s1.343,3,3,3h38c1.656,0,3-1.344,3-3s-1.344-3-3-3h1.219
		c-7.914,0-12.219-5.666-12.219-13.236V327h5.881c13.663,0,21.066,9.113,26.246,19.104l0.227,0.424
		c0.539,1.012,1.576,1.588,2.648,1.588c0.477,0,0.961-0.114,1.41-0.354C274.874,346.981,275.426,345.164,274.646,343.703z"/>
	<path fill="#888888" d="M364.646,343.703l-15.068-28.23c-0.781-1.462-2.601-2.013-4.06-1.234c-0.417,0.222-0.749,0.535-1.009,0.893
		l-0.004-0.007c-2.542,3.958-7.334,5.875-13.625,5.875h-30.297c-6.291,0-11.083-1.918-13.625-5.875l-0.004,0.007
		c-0.26-0.358-0.592-0.671-1.009-0.893c-1.459-0.779-3.278-0.228-4.06,1.234l-12.068,28.23c-0.779,1.461-0.228,3.279,1.234,4.059
		c0.449,0.24,0.934,0.354,1.41,0.354c1.072,0,2.109-0.576,2.648-1.588l0.227-0.424c5.18-9.991,12.583-19.104,26.246-19.104H308
		v257.764c0,7.57-4.086,13.236-12,13.236h1c-1.656,0-3,1.344-3,3s1.344,3,3,3h38c1.656,0,3-1.344,3-3s-1.344-3-3-3h1.219
		c-7.914,0-12.219-5.666-12.219-13.236V327h5.881c13.663,0,24.066,9.113,29.246,19.104l0.227,0.424
		c0.539,1.012,1.576,1.588,2.648,1.588c0.477,0,0.961-0.114,1.41-0.354C364.874,346.981,365.426,345.164,364.646,343.703z"/>
	<path fill="#888888" d="M440.946,275.239c-1.463-0.781-3.279-0.227-4.06,1.234l-0.535,1.002C433.146,283.224,421.98,296,414,296
		h-38V79h7c6.291,0,11,4.75,11,13v-1c0,1.657,1.343,3,3,3s3-1.343,3-3V61c0-1.657-1.343-3-3-3s-3,1.343-3,3v-1
		c0,8.25-4.709,13-11,13h-7V25h18.582c12.039,0,23.569,11.019,27.874,18.721l0.431,0.807c0.54,1.012,1.577,1.588,2.649,1.588
		c0.477,0,0.96-0.114,1.41-0.354c1.461-0.78,2.014-2.598,1.233-4.059l-15.068-28.23c-0.781-1.461-2.597-2.015-4.06-1.234
		c-0.106,0.057-0.198,0.13-0.295,0.198l-0.004-0.014c-0.032,0.028-0.066,0.055-0.099,0.083c-0.073,0.056-0.143,0.114-0.209,0.176
		C403.823,16.604,398.007,19,390.832,19H347c-1.657,0-3,1.343-3,3s1.343,3,3,3h2c6.291,0,11,4.75,11,13v247c0,6.291-2.924,11-8,11h1
		c-1.657,0-3,1.343-3,3s1.343,3,3,3h59c6.291,0,8.375,3.335,9.935,5.721l0.005-0.011c0.269,0.426,0.637,0.797,1.112,1.052
		c0.45,0.24,0.934,0.354,1.41,0.354c1.072,0,2.109-0.576,2.649-1.588l15.068-28.23C442.96,277.836,442.407,276.019,440.946,275.239z
		"/>
	<path fill="#888888" d="M193.946,576.238c-1.463-0.78-3.279-0.227-4.06,1.234l-0.535,1.002C186.146,584.225,174.98,597,167,597h-38
		V380h7c6.291,0,11,4.75,11,13v-1c0,1.656,1.343,3,3,3s3-1.344,3-3v-30c0-1.656-1.343-3-3-3s-3,1.344-3,3v-1c0,8.25-4.709,13-11,13
		h-7v-48h18.582c12.039,0,23.569,11.019,27.874,18.721l0.431,0.806c0.54,1.012,1.577,1.588,2.649,1.588
		c0.477,0,0.96-0.113,1.41-0.354c1.461-0.78,2.014-2.598,1.233-4.059l-15.068-28.23c-0.781-1.461-2.597-2.015-4.06-1.234
		c-0.106,0.057-0.198,0.13-0.295,0.198l-0.004-0.014c-0.032,0.028-0.066,0.055-0.099,0.083c-0.073,0.056-0.143,0.114-0.209,0.176
		c-4.622,3.922-10.438,6.319-17.613,6.319H100c-1.657,0-3,1.343-3,3s1.343,3,3,3h2c6.291,0,11,4.75,11,13v247c0,6.291-2.924,11-8,11
		h1c-1.657,0-3,1.344-3,3s1.343,3,3,3h59c6.291,0,8.375,3.336,9.935,5.721l0.005-0.011c0.269,0.427,0.637,0.798,1.112,1.052
		c0.45,0.24,0.934,0.354,1.41,0.354c1.072,0,2.109-0.576,2.649-1.588l15.068-28.229C195.96,578.836,195.407,577.02,193.946,576.238z
		"/>
	<g>
		<path fill="#888888" d="M92.496,72.011c-2.452,0-3.966,1.68-4.874,2.77s-2.655,3.088-2.655,3.088s-1.635-1.998-2.543-3.088
			s-2.309-2.77-4.761-2.77c-2.452,0-5.535,2.861-5.535,5.495s0.247,3.935,1.14,5.727c0.894,1.792,4.209,7.643,6.678,11.761
			c2.468,4.118,3.567,5.345,5.021,5.345s2.673-1.227,5.141-5.345c2.469-4.118,5.844-9.968,6.738-11.761
			c0.893-1.792,1.169-3.093,1.169-5.727S94.948,72.011,92.496,72.011z"/>
	</g>
	<path fill="#888888" d="M101,263L101,263c-5.182,0-8-3.71-8-8.667V132c0-4.957,2.818-9,8-9h0c1.657,0,3-1.343,3-3s-1.343-3-3-3H69
		c-1.657,0-3,1.343-3,3s1.343,3,3,3h-0.167c5.182,0,8.167,4.044,8.167,9v122.333c0,4.957-2.984,8.667-8.167,8.667H69
		c-1.657,0-3,1.343-3,3s1.343,3,3,3h8h16h8c1.657,0,3-1.343,3-3S102.657,263,101,263z"/>
	<path fill="#888888" d="M105,599L105,599c-5.182,0-8-3.71-8-8.666V332c0-4.956,2.818-9,8-9h0c1.657,0,3-1.344,3-3s-1.343-3-3-3H83
		c-1.657,0-3,1.344-3,3s1.343,3,3,3h-0.167c5.182,0,8.167,4.044,8.167,9v130.085L33.647,318.016
		c-0.288-0.735-0.71-1.016-1.189-1.016H31H16.022H14c-1.657,0-3,1.344-3,3s1.343,3,3,3h4.411L26,342.065v248.269
		c0,4.956-2.984,8.666-8.167,8.666H18c-1.657,0-3,1.344-3,3s1.343,3,3,3h22c1.657,0,3-1.344,3-3s-1.343-3-3-3h0
		c-5.182,0-8-3.71-8-8.666V357.137l59,148.208v84.989c0,4.956-2.984,8.666-8.167,8.666H83c-1.657,0-3,1.344-3,3s1.343,3,3,3h22
		c1.657,0,3-1.344,3-3S106.657,599,105,599z"/>
	<path fill="#888888" d="M436.304,312.856c-0.726-1.065-1.709-0.907-2.997,0S425.661,318,419.745,318H408c-1.657,0-3,1.343-3,3
		s1.343,3,3,3h5.583c3.4,0,13.606,1.412,9.339,16.228l-23.774,82.336c-2.367-2.771-4.633-5.387-6.746-7.836
		c-18.356-21.272-28.534-32.99-28.534-53.729c0-23.833,17.966-37,31.966-37H397c1.657,0,3-1.343,3-3s-1.343-3-3-3h-33
		c-1.657,0-3,1.343-3,3s1.343,3,3,3h4.957c-1.411,0.995-2.756,2.134-4.018,3.46C357.041,335.769,353,347.367,353,361
		c0,24.829,12.388,39.185,31.14,60.915c3.462,4.012,7.315,8.479,11.351,13.318L359,561.609V545c0-1.656-1.344-3-3-3s-3,1.344-3,3v57
		c0,1.656,1.125,3,2.781,3c1.006,0,2.219-0.5,2.219-1.261v0.004l0.221-0.007c0.35-0.491,0.779-1.088,0.779-1.736v-0.096
		l75.17-245.356c-0.079,0.275-1.295,4.501,0.939-3.066c2.308-7.815,5.82-17.511,5.843-26.525S437.761,314.996,436.304,312.856z"/>
</g>
<g id="Lines">
	<g id="Bars">
	</g>
	<path fill="#888888" d="M10,10v8v3v280v3v6v3v6v3v279v3v13v3v62h434v-62v-3v-13v-3V322v-3v-6v-3v-6v-3V21v-3v-8H10z M441,679H13
		v-59h428V679z M441,617H13v-13h428V617z M441,601H13V322h428V601z M441,319H13v-6h428V319z M441,310H13v-6h428V310z M441,301H13V21
		h428V301z M13,18v-5h428v5H13z"/>
	<path id="Thick" fill="#888888" d="M449,6v681H6V6H449 M455,0H0v693h455V0L455,0z"/>
</g>
<g id="Ornament">
	<path fill="#888888" d="M173.46,658c-8.959,0-27.209,0-35.918,0c-0.667,0-2.016-0.426-2.532-0.849
		c-4.718-3.858-13.498-11.966-18.305-15.69c-0.863-0.669,0.193-1.461,0.587-1.461c3.375,0,26.917,0,35.625,0
		c0.89,0,2.722,0.515,3.381,1.112c4.244,3.847,14.859,12.718,17.803,15.261C174.876,657.042,174.384,658,173.46,658z"/>
	<path fill="#888888" d="M287.399,658c8.959,0,27.21,0,35.918,0c0.667,0,2.016-0.426,2.532-0.849
		c4.718-3.858,13.498-11.966,18.305-15.69c0.863-0.669-0.193-1.461-0.587-1.461c-3.375,0-26.917,0-35.625,0
		c-0.89,0-2.722,0.515-3.382,1.112c-4.243,3.847-14.858,12.718-17.803,15.261C285.983,657.042,286.476,658,287.399,658z"/>
	<g>
		<path fill="#888888" d="M241.767,633.347c-3.202,0-5.179,2.194-6.364,3.618c-1.187,1.423-3.468,4.032-3.468,4.032
			s-2.135-2.609-3.321-4.032c-1.186-1.424-3.014-3.618-6.216-3.618c-3.202,0-7.228,3.735-7.228,7.176
			c0,3.438,0.322,5.138,1.488,7.479c1.167,2.341,5.497,9.979,8.721,15.357c3.222,5.378,4.658,6.979,6.556,6.979
			s3.491-1.602,6.713-6.979c3.226-5.378,7.633-13.017,8.799-15.357s1.528-4.04,1.528-7.479
			C248.975,637.082,244.969,633.347,241.767,633.347z"/>
	</g>
</g>
</svg>
