<?xml version="1.0" encoding="utf-8"?>
<!-- Generator: Adobe Illustrator 16.0.0, SVG Export Plug-In . SVG Version: 6.00 Build 0)  -->
<!DOCTYPE svg PUBLIC "-//W3C//DTD SVG 1.1//EN" "http://www.w3.org/Graphics/SVG/1.1/DTD/svg11.dtd">
<svg version="1.1" id="Layer_1" xmlns="http://www.w3.org/2000/svg" xmlns:xlink="http://www.w3.org/1999/xlink" x="0px" y="0px"
	 width="300px" height="300px" viewBox="0 0 300 300" enable-background="new 0 0 300 300" xml:space="preserve">
<g>
	<g>
		
			<polyline fill="none" stroke="#EDE8E5" stroke-width="2" stroke-linecap="round" stroke-linejoin="round" stroke-miterlimit="10" points="
			59.984,272.768 46.455,284.396 45.465,272.146 53.509,265.232 		"/>
		
			<polyline fill="none" stroke="#EDE8E5" stroke-width="2" stroke-linecap="round" stroke-linejoin="round" stroke-miterlimit="10" points="
			58.229,274.273 71.76,262.645 59.8,259.826 51.755,266.742 		"/>
		
			<polyline fill="none" stroke="#EDE8E5" stroke-width="2" stroke-linecap="round" stroke-linejoin="round" stroke-miterlimit="10" points="
			30.884,242.462 44.412,230.831 45.402,243.079 37.359,249.995 		"/>
		
			<polyline fill="none" stroke="#EDE8E5" stroke-width="2" stroke-linecap="round" stroke-linejoin="round" stroke-miterlimit="10" points="
			32.638,240.953 19.109,252.583 31.069,255.4 39.113,248.486 		"/>
		
			<line fill="none" stroke="#EDE8E5" stroke-width="2" stroke-linecap="round" stroke-linejoin="round" stroke-miterlimit="10" x1="45.465" y1="272.146" x2="31.069" y2="255.4"/>
		
			<line fill="none" stroke="#EDE8E5" stroke-width="2" stroke-linecap="round" stroke-linejoin="round" stroke-miterlimit="10" x1="59.8" y1="259.826" x2="45.402" y2="243.079"/>
		
			<line fill="none" stroke="#EDE8E5" stroke-width="2" stroke-linecap="round" stroke-linejoin="round" stroke-miterlimit="10" x1="33.771" y1="258.545" x2="34.21" y2="252.749"/>
		
			<line fill="none" stroke="#EDE8E5" stroke-width="2" stroke-linecap="round" stroke-linejoin="round" stroke-miterlimit="10" x1="36.286" y1="261.473" x2="37.112" y2="250.55"/>
		
			<line fill="none" stroke="#EDE8E5" stroke-width="2" stroke-linecap="round" stroke-linejoin="round" stroke-miterlimit="10" x1="38.801" y1="264.396" x2="40.066" y2="247.626"/>
		
			<line fill="none" stroke="#EDE8E5" stroke-width="2" stroke-linecap="round" stroke-linejoin="round" stroke-miterlimit="10" x1="41.316" y1="267.322" x2="42.949" y2="245.677"/>
		
			<line fill="none" stroke="#EDE8E5" stroke-width="2" stroke-linecap="round" stroke-linejoin="round" stroke-miterlimit="10" x1="43.83" y1="270.247" x2="45.807" y2="244.066"/>
		
			<line fill="none" stroke="#EDE8E5" stroke-width="2" stroke-linecap="round" stroke-linejoin="round" stroke-miterlimit="10" x1="46.488" y1="271.27" x2="48.326" y2="246.925"/>
		
			<line fill="none" stroke="#EDE8E5" stroke-width="2" stroke-linecap="round" stroke-linejoin="round" stroke-miterlimit="10" x1="47.761" y1="261.771" x2="56.744" y2="262.451"/>
		
			<line fill="none" stroke="#EDE8E5" stroke-width="2" stroke-linecap="round" stroke-linejoin="round" stroke-miterlimit="10" x1="47.004" y1="264.451" x2="53.531" y2="264.943"/>
		
			<line fill="none" stroke="#EDE8E5" stroke-width="2" stroke-linecap="round" stroke-linejoin="round" stroke-miterlimit="10" x1="47.359" y1="267.214" x2="50.895" y2="267.479"/>
		
			<line fill="none" stroke="#EDE8E5" stroke-width="2" stroke-linecap="round" stroke-linejoin="round" stroke-miterlimit="10" x1="48.264" y1="259.075" x2="59.094" y2="259.895"/>
		
			<line fill="none" stroke="#EDE8E5" stroke-width="2" stroke-linecap="round" stroke-linejoin="round" stroke-miterlimit="10" x1="47.619" y1="256.291" x2="57" y2="257"/>
		
			<line fill="none" stroke="#EDE8E5" stroke-width="2" stroke-linecap="round" stroke-linejoin="round" stroke-miterlimit="10" x1="47.824" y1="253.57" x2="54.498" y2="254.075"/>
		
			<line fill="none" stroke="#EDE8E5" stroke-width="2" stroke-linecap="round" stroke-linejoin="round" stroke-miterlimit="10" x1="48.619" y1="250.896" x2="51.902" y2="251.145"/>
	</g>
	<g>
		
			<polyline fill="none" stroke="#EDE8E5" stroke-width="2" stroke-linecap="round" stroke-linejoin="round" stroke-miterlimit="10" points="
			120.721,109.868 113.771,101.781 121.091,101.189 125.224,105.998 		"/>
		
			<polyline fill="none" stroke="#EDE8E5" stroke-width="2" stroke-linecap="round" stroke-linejoin="round" stroke-miterlimit="10" points="
			119.82,108.819 126.771,116.906 128.456,109.757 124.322,104.949 		"/>
		
			<polyline fill="none" stroke="#EDE8E5" stroke-width="2" stroke-linecap="round" stroke-linejoin="round" stroke-miterlimit="10" points="
			138.834,92.474 145.786,100.56 138.465,101.152 134.332,96.344 		"/>
		
			<polyline fill="none" stroke="#EDE8E5" stroke-width="2" stroke-linecap="round" stroke-linejoin="round" stroke-miterlimit="10" points="
			139.736,93.522 132.785,85.436 131.101,92.584 135.233,97.393 		"/>
		
			<line fill="none" stroke="#EDE8E5" stroke-width="2" stroke-linecap="round" stroke-linejoin="round" stroke-miterlimit="10" x1="121.091" y1="101.189" x2="131.101" y2="92.584"/>
		
			<line fill="none" stroke="#EDE8E5" stroke-width="2" stroke-linecap="round" stroke-linejoin="round" stroke-miterlimit="10" x1="128.456" y1="109.757" x2="138.465" y2="101.152"/>
		
			<line fill="none" stroke="#EDE8E5" stroke-width="2" stroke-linecap="round" stroke-linejoin="round" stroke-miterlimit="10" x1="129.221" y1="94.2" x2="132.686" y2="94.462"/>
		
			<line fill="none" stroke="#EDE8E5" stroke-width="2" stroke-linecap="round" stroke-linejoin="round" stroke-miterlimit="10" x1="127.472" y1="95.703" x2="134" y2="96.197"/>
		
			<line fill="none" stroke="#EDE8E5" stroke-width="2" stroke-linecap="round" stroke-linejoin="round" stroke-miterlimit="10" x1="125.725" y1="97.206" x2="135.748" y2="97.962"/>
		
			<line fill="none" stroke="#EDE8E5" stroke-width="2" stroke-linecap="round" stroke-linejoin="round" stroke-miterlimit="10" x1="123.975" y1="98.709" x2="136.913" y2="99.685"/>
		
			<line fill="none" stroke="#EDE8E5" stroke-width="2" stroke-linecap="round" stroke-linejoin="round" stroke-miterlimit="10" x1="122.227" y1="100.211" x2="137.875" y2="101.393"/>
		
			<line fill="none" stroke="#EDE8E5" stroke-width="2" stroke-linecap="round" stroke-linejoin="round" stroke-miterlimit="10" x1="121.616" y1="101.8" x2="136.167" y2="102.899"/>
		
			<line fill="none" stroke="#EDE8E5" stroke-width="2" stroke-linecap="round" stroke-linejoin="round" stroke-miterlimit="10" x1="127.292" y1="102.562" x2="126.887" y2="107.93"/>
		
			<line fill="none" stroke="#EDE8E5" stroke-width="2" stroke-linecap="round" stroke-linejoin="round" stroke-miterlimit="10" x1="125.691" y1="102.109" x2="125.396" y2="106.01"/>
		
			<line fill="none" stroke="#EDE8E5" stroke-width="2" stroke-linecap="round" stroke-linejoin="round" stroke-miterlimit="10" x1="124.04" y1="102.321" x2="123.881" y2="104.434"/>
		
			<line fill="none" stroke="#EDE8E5" stroke-width="2" stroke-linecap="round" stroke-linejoin="round" stroke-miterlimit="10" x1="128.904" y1="102.862" x2="128.416" y2="109.335"/>
		
			<line fill="none" stroke="#EDE8E5" stroke-width="2" stroke-linecap="round" stroke-linejoin="round" stroke-miterlimit="10" x1="130.568" y1="102.476" x2="130.145" y2="108.083"/>
		
			<line fill="none" stroke="#EDE8E5" stroke-width="2" stroke-linecap="round" stroke-linejoin="round" stroke-miterlimit="10" x1="132.194" y1="102.599" x2="131.893" y2="106.588"/>
		
			<line fill="none" stroke="#EDE8E5" stroke-width="2" stroke-linecap="round" stroke-linejoin="round" stroke-miterlimit="10" x1="133.793" y1="103.075" x2="133.646" y2="105.037"/>
	</g>
	<g>
		<path fill="none" stroke="#EDE8E5" stroke-width="2" stroke-linecap="round" stroke-linejoin="round" stroke-miterlimit="10" d="
			M96.147,79.074L83.755,90.322L80.72,88.74c0,0,2.437-3.354,0.05-5.981s-7.727-8.511-12.953-14.271
			c-7.5-8.261-8.404-14.288-0.645-21.333"/>
		<path fill="none" stroke="#EDE8E5" stroke-width="2" stroke-linecap="round" stroke-linejoin="round" stroke-miterlimit="10" d="
			M96.147,79.074l12.393-11.25l-1.282-3.172c0,0-3.571,2.101-5.959-0.528c-2.386-2.628-7.726-8.511-12.953-14.269
			c-7.5-8.262-13.411-9.744-21.172-2.699"/>
		
			<line fill="none" stroke="#EDE8E5" stroke-width="2" stroke-linecap="round" stroke-linejoin="round" stroke-miterlimit="10" x1="75.883" y1="76.779" x2="85.704" y2="77.251"/>
		
			<line fill="none" stroke="#EDE8E5" stroke-width="2" stroke-linecap="round" stroke-linejoin="round" stroke-miterlimit="10" x1="72.265" y1="73.012" x2="89.458" y2="73.842"/>
		
			<line fill="none" stroke="#EDE8E5" stroke-width="2" stroke-linecap="round" stroke-linejoin="round" stroke-miterlimit="10" x1="78.725" y1="80.505" x2="81.948" y2="80.66"/>
		
			<line fill="none" stroke="#EDE8E5" stroke-width="2" stroke-linecap="round" stroke-linejoin="round" stroke-miterlimit="10" x1="69.395" y1="69.283" x2="93.213" y2="70.434"/>
		
			<line fill="none" stroke="#EDE8E5" stroke-width="2" stroke-linecap="round" stroke-linejoin="round" stroke-miterlimit="10" x1="68.374" y1="65.643" x2="96.968" y2="67.025"/>
		
			<line fill="none" stroke="#EDE8E5" stroke-width="2" stroke-linecap="round" stroke-linejoin="round" stroke-miterlimit="10" x1="72.128" y1="62.234" x2="100.723" y2="63.616"/>
		
			<line fill="none" stroke="#EDE8E5" stroke-width="2" stroke-linecap="round" stroke-linejoin="round" stroke-miterlimit="10" x1="76.219" y1="58.842" x2="97.315" y2="59.862"/>
		
			<line fill="none" stroke="#EDE8E5" stroke-width="2" stroke-linecap="round" stroke-linejoin="round" stroke-miterlimit="10" x1="80.071" y1="55.438" x2="93.907" y2="56.107"/>
		
			<line fill="none" stroke="#EDE8E5" stroke-width="2" stroke-linecap="round" stroke-linejoin="round" stroke-miterlimit="10" x1="83.999" y1="52.037" x2="90.622" y2="52.357"/>
	</g>
	<g>
		
			<polygon fill="none" stroke="#EDE8E5" stroke-width="2" stroke-linecap="round" stroke-linejoin="round" stroke-miterlimit="10" points="
			240.591,173.982 214.6,173.982 206.135,154.762 213.148,150.65 220.521,154.52 226.688,150.65 233.458,154.641 240.591,150.65 		
			"/>
		
			<line fill="none" stroke="#EDE8E5" stroke-width="2" stroke-linecap="round" stroke-linejoin="round" stroke-miterlimit="10" x1="213.148" y1="150.65" x2="219.918" y2="173.982"/>
		
			<line fill="none" stroke="#EDE8E5" stroke-width="2" stroke-linecap="round" stroke-linejoin="round" stroke-miterlimit="10" x1="220.521" y1="154.52" x2="224.633" y2="173.982"/>
		
			<line fill="none" stroke="#EDE8E5" stroke-width="2" stroke-linecap="round" stroke-linejoin="round" stroke-miterlimit="10" x1="226.688" y1="150.65" x2="229.468" y2="173.982"/>
		
			<line fill="none" stroke="#EDE8E5" stroke-width="2" stroke-linecap="round" stroke-linejoin="round" stroke-miterlimit="10" x1="233.458" y1="154.641" x2="235.212" y2="173.499"/>
		
			<polygon fill="none" stroke="#EDE8E5" stroke-width="2" stroke-linecap="round" stroke-linejoin="round" stroke-miterlimit="10" points="
			240.591,173.982 266.583,173.982 275.046,154.762 268.035,150.65 260.66,154.52 254.495,150.65 247.725,154.641 240.591,150.65 		
			"/>
		
			<line fill="none" stroke="#EDE8E5" stroke-width="2" stroke-linecap="round" stroke-linejoin="round" stroke-miterlimit="10" x1="268.035" y1="150.65" x2="261.266" y2="173.982"/>
		
			<line fill="none" stroke="#EDE8E5" stroke-width="2" stroke-linecap="round" stroke-linejoin="round" stroke-miterlimit="10" x1="260.66" y1="154.52" x2="256.55" y2="173.982"/>
		
			<line fill="none" stroke="#EDE8E5" stroke-width="2" stroke-linecap="round" stroke-linejoin="round" stroke-miterlimit="10" x1="254.495" y1="150.65" x2="251.714" y2="173.982"/>
		
			<line fill="none" stroke="#EDE8E5" stroke-width="2" stroke-linecap="round" stroke-linejoin="round" stroke-miterlimit="10" x1="247.725" y1="154.641" x2="245.971" y2="173.499"/>
		<path fill="none" stroke="#EDE8E5" stroke-width="2" stroke-linecap="round" stroke-linejoin="round" stroke-miterlimit="10" d="
			M272.169,152.588c8.377-16.264-7.155-27.084-32.062-27.084l0,0c-24.905,0-39.775,11.484-31.397,27.748"/>
		<g>
			
				<circle fill="none" stroke="#EDE8E5" stroke-width="2" stroke-linecap="round" stroke-linejoin="round" stroke-miterlimit="10" cx="229.335" cy="99.116" r="2.056"/>
			
				<line fill="none" stroke="#EDE8E5" stroke-width="2" stroke-linecap="round" stroke-linejoin="round" stroke-miterlimit="10" x1="229.673" y1="101.142" x2="236.117" y2="139.377"/>
		</g>
		<g>
			
				<circle fill="none" stroke="#EDE8E5" stroke-width="2" stroke-linecap="round" stroke-linejoin="round" stroke-miterlimit="10" cx="263.96" cy="113.597" r="2.055"/>
			
				<line fill="none" stroke="#EDE8E5" stroke-width="2" stroke-linecap="round" stroke-linejoin="round" stroke-miterlimit="10" x1="262.917" y1="115.369" x2="251.286" y2="135.109"/>
		</g>
		<g>
			
				<circle fill="none" stroke="#EDE8E5" stroke-width="2" stroke-linecap="round" stroke-linejoin="round" stroke-miterlimit="10" cx="195.872" cy="122.458" r="2.056"/>
			
				<line fill="none" stroke="#EDE8E5" stroke-width="2" stroke-linecap="round" stroke-linejoin="round" stroke-miterlimit="10" x1="197.258" y1="123.975" x2="208.84" y2="136.65"/>
		</g>
		<g>
			
				<circle fill="none" stroke="#EDE8E5" stroke-width="2" stroke-linecap="round" stroke-linejoin="round" stroke-miterlimit="10" cx="218.744" cy="117.779" r="2.055"/>
			
				<line fill="none" stroke="#EDE8E5" stroke-width="2" stroke-linecap="round" stroke-linejoin="round" stroke-miterlimit="10" x1="219.292" y1="119.759" x2="223.363" y2="133.967"/>
		</g>
		<g>
			
				<circle fill="none" stroke="#EDE8E5" stroke-width="2" stroke-linecap="round" stroke-linejoin="round" stroke-miterlimit="10" cx="286.732" cy="129.165" r="2.056"/>
			
				<line fill="none" stroke="#EDE8E5" stroke-width="2" stroke-linecap="round" stroke-linejoin="round" stroke-miterlimit="10" x1="284.866" y1="130.027" x2="266.016" y2="138.736"/>
		</g>
		<g>
			
				<circle fill="none" stroke="#EDE8E5" stroke-width="2" stroke-linecap="round" stroke-linejoin="round" stroke-miterlimit="10" cx="284.143" cy="142.504" r="2.055"/>
			
				<line fill="none" stroke="#EDE8E5" stroke-width="2" stroke-linecap="round" stroke-linejoin="round" stroke-miterlimit="10" x1="282.111" y1="142.818" x2="274.456" y2="144.004"/>
		</g>
		<g>
			
				<circle fill="none" stroke="#EDE8E5" stroke-width="2" stroke-linecap="round" stroke-linejoin="round" stroke-miterlimit="10" cx="245.971" cy="106.468" r="2.055"/>
			
				<line fill="none" stroke="#EDE8E5" stroke-width="2" stroke-linecap="round" stroke-linejoin="round" stroke-miterlimit="10" x1="245.891" y1="108.521" x2="245.225" y2="125.504"/>
		</g>
	</g>
	<path fill="none" stroke="#EDE8E5" stroke-width="2" stroke-linecap="round" stroke-linejoin="round" stroke-miterlimit="10" d="
		M241.893,15.418L241.893,15.418c11.395,5.045,15.418-0.5,23.517,3.073c11.954,5.273,3.694,20.699-9.117,14.449
		C249.701,29.726,254.855,22.789,241.893,15.418z"/>
	<path fill="none" stroke="#EDE8E5" stroke-width="2" stroke-linecap="round" stroke-linejoin="round" stroke-miterlimit="10" d="
		M58.394,140.906L58.394,140.906c-11.624,4.489-10.548,11.256-18.801,14.455c-12.182,4.725-17.25-12.023-3.77-16.664
		C42.756,136.312,44.016,144.86,58.394,140.906z"/>
	
		<polygon fill="none" stroke="#EDE8E5" stroke-width="2" stroke-linecap="round" stroke-linejoin="round" stroke-miterlimit="10" points="
		155.46,51.04 143.725,52.705 138.443,63.317 133.234,52.67 121.51,50.927 130.025,42.682 128.06,30.994 138.533,36.544 
		149.043,31.064 147,42.739 	"/>
	
		<polygon fill="none" stroke="#EDE8E5" stroke-width="2" stroke-linecap="round" stroke-linejoin="round" stroke-miterlimit="10" points="
		206.514,258.816 197.039,251.695 185.8,255.465 189.646,244.253 182.588,234.73 194.438,234.922 201.314,225.268 204.795,236.598 
		216.104,240.152 206.402,246.965 	"/>
	
		<polygon fill="none" stroke="#EDE8E5" stroke-width="2" stroke-linecap="round" stroke-linejoin="round" stroke-miterlimit="10" points="
		93.148,203.92 82.454,197.521 71.76,191.125 82.648,185.062 93.536,179 93.342,191.461 	"/>
	
		<circle fill="none" stroke="#EDE8E5" stroke-width="2" stroke-linecap="round" stroke-linejoin="round" stroke-miterlimit="10" cx="20.236" cy="33.785" r="8.873"/>
	
		<circle fill="none" stroke="#EDE8E5" stroke-width="2" stroke-linecap="round" stroke-linejoin="round" stroke-miterlimit="10" cx="216.883" cy="274.814" r="8.873"/>
	
		<circle fill="none" stroke="#EDE8E5" stroke-width="2" stroke-linecap="round" stroke-linejoin="round" stroke-miterlimit="10" cx="265.307" cy="62.234" r="8.873"/>
	
		<circle fill="none" stroke="#EDE8E5" stroke-width="2" stroke-linecap="round" stroke-linejoin="round" stroke-miterlimit="10" cx="133.793" cy="270.846" r="12.301"/>
	<g>
		<path fill="none" stroke="#EDE8E5" stroke-width="2" stroke-linecap="round" stroke-linejoin="round" stroke-miterlimit="10" d="
			M253.59,212.434l-6.859-7.558l0.965-1.851c0,0,2.046,1.485,3.648,0.029c1.602-1.455,5.189-4.712,8.702-7.898
			c5.039-4.574,8.714-5.126,13.011-0.395"/>
		<path fill="none" stroke="#EDE8E5" stroke-width="2" stroke-linecap="round" stroke-linejoin="round" stroke-miterlimit="10" d="
			M253.59,212.434l6.861,7.559l1.935-0.782c0,0-1.28-2.178,0.322-3.634c1.603-1.455,5.19-4.712,8.703-7.899
			c5.039-4.573,5.942-8.179,1.646-12.911"/>
		
			<line fill="none" stroke="#EDE8E5" stroke-width="2" stroke-linecap="round" stroke-linejoin="round" stroke-miterlimit="10" x1="254.99" y1="200.075" x2="254.701" y2="206.064"/>
		
			<line fill="none" stroke="#EDE8E5" stroke-width="2" stroke-linecap="round" stroke-linejoin="round" stroke-miterlimit="10" x1="257.287" y1="197.869" x2="256.781" y2="208.354"/>
		
			<line fill="none" stroke="#EDE8E5" stroke-width="2" stroke-linecap="round" stroke-linejoin="round" stroke-miterlimit="10" x1="252.717" y1="201.809" x2="252.623" y2="203.773"/>
		
			<line fill="none" stroke="#EDE8E5" stroke-width="2" stroke-linecap="round" stroke-linejoin="round" stroke-miterlimit="10" x1="259.561" y1="196.118" x2="258.859" y2="210.645"/>
		
			<line fill="none" stroke="#EDE8E5" stroke-width="2" stroke-linecap="round" stroke-linejoin="round" stroke-miterlimit="10" x1="261.782" y1="195.495" x2="260.938" y2="212.936"/>
		
			<line fill="none" stroke="#EDE8E5" stroke-width="2" stroke-linecap="round" stroke-linejoin="round" stroke-miterlimit="10" x1="263.859" y1="197.785" x2="263.018" y2="215.225"/>
		
			<line fill="none" stroke="#EDE8E5" stroke-width="2" stroke-linecap="round" stroke-linejoin="round" stroke-miterlimit="10" x1="265.93" y1="200.28" x2="265.307" y2="213.146"/>
		
			<line fill="none" stroke="#EDE8E5" stroke-width="2" stroke-linecap="round" stroke-linejoin="round" stroke-miterlimit="10" x1="268.005" y1="202.629" x2="267.598" y2="211.066"/>
		
			<line fill="none" stroke="#EDE8E5" stroke-width="2" stroke-linecap="round" stroke-linejoin="round" stroke-miterlimit="10" x1="270.079" y1="205.023" x2="269.884" y2="209.062"/>
	</g>
	
		<polygon fill="none" stroke="#EDE8E5" stroke-width="2" stroke-linecap="round" stroke-linejoin="round" stroke-miterlimit="10" points="
		166.883,151.846 154.797,154.883 142.712,157.922 146.124,145.936 149.537,133.95 158.21,142.899 	"/>
	
		<polygon fill="none" stroke="#EDE8E5" stroke-width="2" stroke-linecap="round" stroke-linejoin="round" stroke-miterlimit="10" points="
		216.883,51.846 204.797,54.883 192.712,57.922 196.124,45.936 199.537,33.95 208.21,42.899 	"/>
	
		<polygon fill="none" stroke="#EDE8E5" stroke-width="2" stroke-linecap="round" stroke-linejoin="round" stroke-miterlimit="10" points="
		267.698,275.879 264.494,267.227 261.29,258.576 270.385,260.127 279.479,261.679 273.587,268.779 	"/>
	
		<polygon fill="none" stroke="#EDE8E5" stroke-width="2" stroke-linecap="round" stroke-linejoin="round" stroke-miterlimit="10" points="
		79.262,293.047 76.058,284.395 72.854,275.744 81.949,277.295 91.043,278.848 85.151,285.947 	"/>
	
		<polygon fill="none" stroke="#EDE8E5" stroke-width="2" stroke-linecap="round" stroke-linejoin="round" stroke-miterlimit="10" points="
		73.019,102.913 71.348,109.939 76.189,115.299 68.991,115.881 65.391,122.142 62.611,115.476 55.545,113.986 61.025,109.283 
		60.26,102.101 66.426,105.861 	"/>
	
		<polygon fill="none" stroke="#EDE8E5" stroke-width="2" stroke-linecap="round" stroke-linejoin="round" stroke-miterlimit="10" points="
		292.018,169.791 290.348,176.816 295.188,182.177 287.989,182.759 284.389,189.02 281.609,182.354 274.543,180.864 
		280.023,176.161 279.258,168.979 285.424,172.739 	"/>
	
		<polygon fill="none" stroke="#EDE8E5" stroke-width="2" stroke-linecap="round" stroke-linejoin="round" stroke-miterlimit="10" points="
		210.2,190.865 208.529,197.893 213.371,203.252 206.172,203.834 202.572,210.095 199.792,203.43 192.727,201.939 198.207,197.236 
		197.441,190.055 203.607,193.814 	"/>
	
		<polygon fill="none" stroke="#EDE8E5" stroke-width="2" stroke-linecap="round" stroke-linejoin="round" stroke-miterlimit="10" points="
		18.515,53.025 16.844,60.052 21.686,65.412 14.487,65.994 10.887,72.254 8.107,65.588 1.041,64.099 6.521,59.396 5.756,52.214 
		11.922,55.974 	"/>
	
		<circle fill="none" stroke="#EDE8E5" stroke-width="2" stroke-linecap="round" stroke-linejoin="round" stroke-miterlimit="10" cx="90.883" cy="147.596" r="5.655"/>
	
		<circle fill="none" stroke="#EDE8E5" stroke-width="2" stroke-linecap="round" stroke-linejoin="round" stroke-miterlimit="10" cx="150.883" cy="240.596" r="5.655"/>
	
		<circle fill="none" stroke="#EDE8E5" stroke-width="2" stroke-linecap="round" stroke-linejoin="round" stroke-miterlimit="10" cx="20.236" cy="283.688" r="5.655"/>
	
		<circle fill="none" stroke="#EDE8E5" stroke-width="2" stroke-linecap="round" stroke-linejoin="round" stroke-miterlimit="10" cx="203.049" cy="15.418" r="5.655"/>
	
		<circle fill="none" stroke="#EDE8E5" stroke-width="2" stroke-linecap="round" stroke-linejoin="round" stroke-miterlimit="10" cx="33.771" cy="9.763" r="5.655"/>
</g>
</svg>
